<svg width="141" height="100" viewBox="0 0 141 100" fill="none" xmlns="http://www.w3.org/2000/svg">
<g filter="url(#filter0_n_210_1348)">
<path d="M81.8476 47.9838C82.0703 47.9838 82.2916 47.9993 82.5115 48.0303C82.7342 48.0585 82.9471 48.0937 83.15 48.136C83.3558 48.1755 83.5503 48.2149 83.7336 48.2544C83.9168 48.2939 84.0817 48.3221 84.2283 48.339C84.1945 48.4405 84.1776 48.6195 84.1776 48.876C84.1776 49.375 84.2523 49.8077 84.4017 50.1742C84.3848 50.2249 84.3326 50.2559 84.2452 50.2672L84.0634 49.8782C83.9732 49.6837 83.8647 49.492 83.7378 49.3031C83.6109 49.1114 83.4587 48.9409 83.2811 48.7914C83.1035 48.6392 82.8963 48.5166 82.6595 48.4236C82.4255 48.3305 82.1549 48.284 81.8476 48.284C81.5826 48.284 81.3472 48.3277 81.1415 48.4151C80.9357 48.5025 80.7552 48.6209 80.6002 48.7703C80.4451 48.9169 80.3141 49.0889 80.2069 49.2862C80.0998 49.4807 80.0124 49.6879 79.9448 49.9078C79.8799 50.1277 79.832 50.3532 79.801 50.5844C79.7728 50.8155 79.7587 51.0396 79.7587 51.2567C79.7587 51.6175 79.8052 51.9629 79.8982 52.2927C79.9941 52.6225 80.1421 52.9143 80.3422 53.168C80.5424 53.4189 80.7961 53.6191 81.1034 53.7685C81.4135 53.9179 81.7828 53.9926 82.2113 53.9926C83.0316 53.9926 83.6518 53.7361 84.0719 53.223C84.117 53.223 84.1536 53.2357 84.1818 53.2611C84.2128 53.2864 84.2283 53.3174 84.2283 53.3541C84.093 53.5542 83.9281 53.7276 83.7336 53.8742C83.5419 54.0208 83.3375 54.142 83.1204 54.2379C82.9034 54.3309 82.6835 54.4 82.4608 54.4451C82.2409 54.4902 82.0365 54.5127 81.8476 54.5127C81.6418 54.5127 81.4191 54.4902 81.1795 54.4451C80.9427 54.4028 80.7045 54.3309 80.4649 54.2294C80.2281 54.1279 79.9997 53.9954 79.7798 53.8319C79.5628 53.6656 79.3697 53.4626 79.2005 53.223C79.0314 52.9806 78.8961 52.6972 78.7946 52.3731C78.6931 52.0489 78.6424 51.6767 78.6424 51.2567C78.6424 50.8339 78.6931 50.4603 78.7946 50.1361C78.8961 49.8091 79.0314 49.5244 79.2005 49.282C79.3725 49.0395 79.5684 48.8365 79.7883 48.673C80.011 48.5067 80.2408 48.3728 80.4776 48.2713C80.7144 48.167 80.9512 48.0937 81.188 48.0514C81.4248 48.0063 81.6447 47.9838 81.8476 47.9838ZM87.4141 50.4956C87.6932 50.4956 87.9441 50.5449 88.1668 50.6436C88.3923 50.7422 88.584 50.879 88.7419 51.0537C88.8998 51.2285 89.021 51.4385 89.1056 51.6838C89.1901 51.9262 89.2324 52.1912 89.2324 52.4788C89.2324 53.0651 89.0675 53.5416 88.7377 53.908C88.4107 54.2773 87.9695 54.462 87.4141 54.462C87.1379 54.462 86.887 54.4141 86.6614 54.3182C86.4387 54.2195 86.2485 54.0828 86.0906 53.908C85.9327 53.7304 85.8101 53.5204 85.7227 53.278C85.6381 53.0355 85.5958 52.7691 85.5958 52.4788C85.5958 52.1912 85.6381 51.9262 85.7227 51.6838C85.8073 51.4385 85.9271 51.2285 86.0821 51.0537C86.24 50.879 86.4317 50.7422 86.6572 50.6436C86.8827 50.5449 87.135 50.4956 87.4141 50.4956ZM87.4141 50.7704C87.1266 50.7704 86.8968 50.91 86.7249 51.1891C86.5557 51.4681 86.4712 51.898 86.4712 52.4788C86.4712 53.0595 86.5557 53.4894 86.7249 53.7685C86.8968 54.0448 87.1266 54.1829 87.4141 54.1829C87.7017 54.1829 87.93 54.0433 88.0992 53.7643C88.2711 53.4852 88.3571 53.0567 88.3571 52.4788C88.3571 52.1884 88.3346 51.9361 88.2894 51.7219C88.2443 51.5076 88.1809 51.33 88.0992 51.1891C88.0174 51.0481 87.9187 50.9438 87.8032 50.8761C87.6876 50.8057 87.5579 50.7704 87.4141 50.7704ZM92.7481 54.166C92.765 54.1998 92.7734 54.235 92.7734 54.2717C92.7734 54.2999 92.765 54.3309 92.7481 54.3647C92.376 54.3478 92.0151 54.3393 91.6655 54.3393C91.3216 54.3393 90.9636 54.3478 90.5915 54.3647C90.5802 54.3196 90.5746 54.2886 90.5746 54.2717C90.5746 54.2576 90.5802 54.2224 90.5915 54.166C90.6845 54.1547 90.7606 54.1434 90.8198 54.1321C90.879 54.1181 90.9523 54.0969 91.0397 54.0687C91.1271 54.0405 91.1934 54.0011 91.2385 53.9503C91.2836 53.8968 91.3075 53.8333 91.3103 53.76C91.3216 53.4809 91.3273 53.1427 91.3273 52.7452C91.3273 52.6127 91.3259 52.3871 91.323 52.0686C91.3202 51.75 91.3188 51.471 91.3188 51.2313C91.1581 51.1327 90.8875 51.0749 90.5069 51.058C90.4956 51.0129 90.49 50.9776 90.49 50.9523C90.49 50.9353 90.4956 50.9043 90.5069 50.8592C91.0538 50.8028 91.5302 50.6873 91.9362 50.5125C92.0067 50.5407 92.056 50.5773 92.0842 50.6224V51.2905C92.3576 51.0509 92.6198 50.8592 92.8707 50.7154C93.1216 50.5689 93.3753 50.4956 93.6318 50.4956C93.9532 50.4956 94.1801 50.5858 94.3126 50.7662C94.448 50.9466 94.5184 51.2285 94.5241 51.6119L94.5664 53.76C94.5692 53.8333 94.5903 53.8968 94.6298 53.9503C94.6721 54.0011 94.7313 54.0405 94.8074 54.0687C94.8863 54.0969 94.9512 54.1181 95.0019 54.1321C95.0526 54.1434 95.1189 54.1547 95.2006 54.166C95.2119 54.2224 95.2176 54.2604 95.2176 54.2801C95.2176 54.3027 95.2119 54.3309 95.2006 54.3647C94.837 54.3478 94.5015 54.3393 94.1942 54.3393C93.8954 54.3393 93.5642 54.3478 93.2005 54.3647C93.1892 54.3196 93.1836 54.2858 93.1836 54.2632C93.1836 54.2435 93.1892 54.2111 93.2005 54.166C93.2738 54.1547 93.3344 54.1434 93.3824 54.1321C93.4331 54.1181 93.4895 54.0969 93.5515 54.0687C93.6163 54.0405 93.6643 54.0011 93.6953 53.9503C93.7291 53.8968 93.746 53.8333 93.746 53.76L93.7545 51.7515C93.7545 51.2412 93.6008 50.9861 93.2936 50.9861C93.006 50.9861 92.6029 51.1778 92.0842 51.5612C92.0842 52.3815 92.0955 53.1145 92.118 53.76C92.1208 53.8333 92.142 53.8968 92.1814 53.9503C92.2237 54.0011 92.2829 54.0405 92.359 54.0687C92.4352 54.0969 92.4986 54.1181 92.5493 54.1321C92.6001 54.1434 92.6663 54.1547 92.7481 54.166ZM97.8283 54.462C97.6902 54.462 97.5647 54.4507 97.4519 54.4281C97.342 54.4056 97.256 54.3816 97.194 54.3563C97.1348 54.3309 97.0545 54.2928 96.953 54.2421C96.843 54.2421 96.6809 54.283 96.4667 54.3647C96.43 54.3422 96.4047 54.3168 96.3906 54.2886C96.4047 54.2435 96.4216 54.0899 96.4413 53.8277C96.4639 53.5655 96.4751 53.3315 96.4751 53.1257C96.5118 53.1088 96.578 53.1004 96.6739 53.1004C96.7246 53.2639 96.7768 53.4034 96.8303 53.519C96.8867 53.6346 96.9572 53.7473 97.0418 53.8573C97.1292 53.9644 97.2335 54.0462 97.3547 54.1025C97.4787 54.1561 97.6197 54.1829 97.7775 54.1829C98.0228 54.1829 98.2145 54.1195 98.3526 53.9926C98.4936 53.8657 98.5641 53.722 98.5641 53.5613C98.5641 53.4401 98.5443 53.3372 98.5049 53.2526C98.4654 53.168 98.3766 53.0792 98.2385 52.9862C98.1031 52.8904 97.9086 52.7959 97.6549 52.7029C97.497 52.6465 97.3631 52.5944 97.2532 52.5464C97.1433 52.4985 97.0291 52.4393 96.9107 52.3688C96.7951 52.2983 96.7021 52.2265 96.6316 52.1532C96.5611 52.0771 96.5033 51.9868 96.4582 51.8825C96.4131 51.7782 96.3906 51.6641 96.3906 51.54C96.3906 51.4498 96.4004 51.361 96.4202 51.2736C96.4427 51.1834 96.4836 51.0904 96.5428 50.9945C96.6048 50.8987 96.6809 50.8155 96.7711 50.745C96.8642 50.6718 96.9868 50.6126 97.139 50.5674C97.2941 50.5195 97.4689 50.4956 97.6634 50.4956C97.7423 50.4956 97.8114 50.4998 97.8706 50.5082C97.9326 50.5167 98.0059 50.5322 98.0905 50.5548C98.1778 50.5745 98.2258 50.5858 98.2342 50.5886C98.2963 50.5745 98.3597 50.5562 98.4245 50.5336C98.4922 50.5111 98.5302 50.4984 98.5387 50.4956H98.6486C98.7163 50.9015 98.8037 51.2468 98.9108 51.5316C98.877 51.5682 98.822 51.5865 98.7459 51.5865C98.5119 51.3046 98.3118 51.0988 98.1454 50.9692C97.9819 50.8367 97.7959 50.7704 97.5873 50.7704C97.4238 50.7704 97.28 50.8071 97.1559 50.8804C97.0319 50.9537 96.9699 51.065 96.9699 51.2144C96.9699 51.4033 97.0446 51.5513 97.194 51.6584C97.3462 51.7655 97.6267 51.9023 98.0355 52.0686C98.2244 52.1447 98.3724 52.2081 98.4795 52.2589C98.5894 52.3096 98.6994 52.3702 98.8093 52.4407C98.9193 52.5112 98.9996 52.5845 99.0503 52.6606C99.1039 52.7339 99.1476 52.8227 99.1814 52.927C99.2153 53.0313 99.2322 53.1525 99.2322 53.2907C99.2322 53.5895 99.094 53.8601 98.8178 54.1025C98.5443 54.3422 98.2145 54.462 97.8283 54.462ZM101.623 49.7767C101.651 49.7654 101.684 49.7598 101.72 49.7598C101.757 49.7598 101.795 49.7654 101.834 49.7767V50.7028H103.116C103.133 50.745 103.141 50.7972 103.141 50.8592C103.141 50.9128 103.133 50.9621 103.116 51.0072H101.834V53.2653C101.834 53.7107 102.039 53.9334 102.448 53.9334C102.603 53.9334 102.735 53.9038 102.845 53.8446C102.958 53.7854 103.082 53.6966 103.217 53.5782C103.288 53.5867 103.334 53.6205 103.357 53.6797C103.233 53.9024 103.049 54.0884 102.807 54.2379C102.565 54.3873 102.298 54.462 102.008 54.462C101.326 54.462 100.985 54.049 100.985 53.223V51.0072H100.464C100.453 50.9565 100.447 50.9241 100.447 50.91C100.447 50.9071 100.453 50.8747 100.464 50.8127C100.6 50.745 100.703 50.6901 100.773 50.6478C100.846 50.6027 100.938 50.5393 101.048 50.4575C101.161 50.3758 101.262 50.2799 101.352 50.17C101.445 50.0572 101.536 49.9261 101.623 49.7767ZM104.246 50.8592C104.793 50.8028 105.27 50.6873 105.676 50.5125C105.746 50.5407 105.796 50.5773 105.824 50.6224V51.3497C105.928 51.1524 106.083 50.9607 106.289 50.7747C106.497 50.5886 106.715 50.4956 106.94 50.4956C107.109 50.4956 107.246 50.5463 107.35 50.6478C107.457 50.7465 107.511 50.8832 107.511 51.058C107.511 51.2243 107.462 51.354 107.363 51.447C107.264 51.54 107.14 51.5865 106.991 51.5865C106.853 51.5865 106.738 51.5428 106.648 51.4555C106.561 51.3652 106.513 51.2468 106.504 51.1003C106.386 51.151 106.251 51.2638 106.099 51.4385C105.949 51.6133 105.858 51.7867 105.824 51.9587C105.824 52.5873 105.835 53.1878 105.858 53.76C105.86 53.8333 105.887 53.8968 105.938 53.9503C105.989 54.0011 106.063 54.0405 106.162 54.0687C106.261 54.0969 106.342 54.1181 106.407 54.1321C106.472 54.1434 106.557 54.1547 106.661 54.166C106.678 54.1998 106.686 54.235 106.686 54.2717C106.686 54.2999 106.678 54.3309 106.661 54.3647C106.238 54.3478 105.819 54.3393 105.405 54.3393C105.061 54.3393 104.703 54.3478 104.331 54.3647C104.32 54.3196 104.314 54.2886 104.314 54.2717C104.314 54.2576 104.32 54.2224 104.331 54.166C104.424 54.1547 104.5 54.1434 104.559 54.1321C104.619 54.1181 104.692 54.0969 104.779 54.0687C104.867 54.0405 104.933 54.0011 104.978 53.9503C105.023 53.8968 105.047 53.8333 105.05 53.76C105.061 53.4809 105.067 53.1427 105.067 52.7452C105.067 52.6127 105.065 52.3871 105.063 52.0686C105.06 51.75 105.058 51.471 105.058 51.2313C104.898 51.1327 104.627 51.0749 104.246 51.058C104.235 51.0129 104.23 50.9776 104.23 50.9523C104.23 50.9353 104.235 50.9043 104.246 50.8592ZM108.413 50.5886C108.515 50.5942 108.616 50.5999 108.718 50.6055C108.819 50.6111 108.9 50.6154 108.959 50.6182C109.018 50.621 109.073 50.6224 109.124 50.6224C109.166 50.6224 109.215 50.621 109.272 50.6182C109.328 50.6154 109.404 50.6111 109.5 50.6055C109.599 50.5999 109.693 50.5942 109.783 50.5886C109.834 50.6055 109.875 50.6492 109.906 50.7197C109.903 50.7422 109.898 50.7761 109.889 50.8212C109.883 50.8635 109.878 50.9156 109.872 50.9776C109.869 51.0368 109.868 51.1101 109.868 51.1975L109.859 53.2061C109.859 53.7135 110.013 53.9672 110.32 53.9672C110.605 53.9672 111.01 53.7798 111.534 53.4048C111.534 52.5648 111.521 51.829 111.496 51.1975C111.496 51.1468 111.486 51.1017 111.466 51.0622C111.447 51.0227 111.416 50.9889 111.373 50.9607C111.334 50.9325 111.297 50.91 111.263 50.8931C111.232 50.8733 111.186 50.8564 111.124 50.8423C111.062 50.8254 111.018 50.8155 110.993 50.8127C110.967 50.8071 110.925 50.7986 110.866 50.7873C110.855 50.7422 110.849 50.7084 110.849 50.6858C110.849 50.6661 110.855 50.6337 110.866 50.5886C110.965 50.5942 111.065 50.5999 111.166 50.6055C111.27 50.6111 111.352 50.6154 111.411 50.6182C111.471 50.621 111.526 50.6224 111.576 50.6224C111.619 50.6224 111.668 50.621 111.724 50.6182C111.781 50.6154 111.857 50.6111 111.953 50.6055C112.051 50.5999 112.146 50.5942 112.236 50.5886C112.25 50.597 112.261 50.6055 112.27 50.614C112.281 50.6196 112.289 50.6281 112.295 50.6393C112.304 50.6478 112.309 50.6548 112.312 50.6605C112.315 50.6633 112.319 50.6732 112.325 50.6901C112.33 50.7042 112.335 50.714 112.337 50.7197C112.315 50.8719 112.304 51.0312 112.304 51.1975C112.287 51.6119 112.278 51.9488 112.278 52.2081C112.278 52.3435 112.281 52.5704 112.287 52.8889C112.292 53.2075 112.295 53.4866 112.295 53.7262C112.456 53.8192 112.726 53.877 113.107 53.8996C113.121 53.97 113.128 54.0067 113.128 54.0095C113.128 54.0264 113.121 54.056 113.107 54.0983C112.574 54.1491 112.098 54.2646 111.678 54.4451C111.604 54.4141 111.557 54.376 111.534 54.3309V53.6712C111.252 53.9137 110.986 54.1068 110.735 54.2505C110.487 54.3915 110.236 54.462 109.982 54.462C109.661 54.462 109.432 54.3718 109.297 54.1913C109.165 54.0109 109.095 53.7276 109.09 53.3414L109.056 51.1975C109.05 51.1327 109.038 51.0847 109.018 51.0537C109.001 51.0199 108.971 50.9889 108.929 50.9607C108.89 50.9325 108.853 50.91 108.819 50.8931C108.785 50.8733 108.737 50.8564 108.675 50.8423C108.613 50.8254 108.57 50.8155 108.544 50.8127C108.519 50.8071 108.475 50.7986 108.413 50.7873C108.402 50.7422 108.396 50.7084 108.396 50.6858C108.396 50.6661 108.402 50.6337 108.413 50.5886ZM117.599 53.2399C117.667 53.254 117.722 53.285 117.764 53.3329C117.623 53.7107 117.405 53.994 117.109 54.1829C116.813 54.3689 116.492 54.462 116.145 54.462C115.973 54.462 115.805 54.4394 115.642 54.3943C115.478 54.352 115.319 54.2816 115.164 54.1829C115.012 54.0842 114.878 53.963 114.762 53.8192C114.649 53.6726 114.558 53.4908 114.487 53.2737C114.42 53.0539 114.386 52.8114 114.386 52.5464C114.386 51.9347 114.573 51.4399 114.948 51.0622C115.323 50.6844 115.791 50.4956 116.352 50.4956C116.747 50.4956 117.068 50.5815 117.316 50.7535C117.567 50.9227 117.692 51.1397 117.692 51.4047C117.692 51.5541 117.643 51.6782 117.544 51.7768C117.446 51.8755 117.325 51.9248 117.181 51.9248C117.029 51.9248 116.906 51.8811 116.813 51.7937C116.72 51.7035 116.673 51.5992 116.673 51.4808C116.673 51.2666 116.782 51.1313 116.999 51.0749C116.979 51.01 116.916 50.9438 116.809 50.8761C116.702 50.8057 116.549 50.7704 116.352 50.7704C116.251 50.7704 116.155 50.7831 116.064 50.8085C115.974 50.831 115.877 50.8804 115.773 50.9565C115.671 51.0326 115.584 51.1327 115.511 51.2567C115.44 51.3807 115.381 51.5541 115.333 51.7768C115.285 51.9967 115.261 52.2532 115.261 52.5464C115.261 52.7438 115.281 52.9228 115.32 53.0835C115.363 53.2441 115.427 53.3893 115.515 53.519C115.602 53.6487 115.722 53.7502 115.874 53.8235C116.026 53.8968 116.205 53.9334 116.411 53.9334C116.541 53.9334 116.664 53.9165 116.779 53.8827C116.895 53.846 116.988 53.808 117.058 53.7685C117.131 53.729 117.209 53.6698 117.291 53.5909C117.375 53.5091 117.432 53.4513 117.46 53.4175C117.488 53.3809 117.535 53.3217 117.599 53.2399ZM119.982 49.7767C120.01 49.7654 120.042 49.7598 120.079 49.7598C120.116 49.7598 120.154 49.7654 120.193 49.7767V50.7028H121.475C121.491 50.745 121.5 50.7972 121.5 50.8592C121.5 50.9128 121.491 50.9621 121.475 51.0072H120.193V53.2653C120.193 53.7107 120.398 53.9334 120.806 53.9334C120.961 53.9334 121.094 53.9038 121.204 53.8446C121.317 53.7854 121.441 53.6966 121.576 53.5782C121.646 53.5867 121.693 53.6205 121.716 53.6797C121.592 53.9024 121.408 54.0884 121.166 54.2379C120.923 54.3873 120.657 54.462 120.367 54.462C119.684 54.462 119.343 54.049 119.343 53.223V51.0072H118.823C118.812 50.9565 118.806 50.9241 118.806 50.91C118.806 50.9071 118.812 50.8747 118.823 50.8127C118.959 50.745 119.061 50.6901 119.132 50.6478C119.205 50.6027 119.297 50.5393 119.407 50.4575C119.52 50.3758 119.621 50.2799 119.711 50.17C119.804 50.0572 119.894 49.9261 119.982 49.7767ZM122.605 50.8592C123.152 50.8028 123.629 50.6873 124.035 50.5125C124.105 50.5407 124.154 50.5773 124.183 50.6224C124.183 52.0855 124.194 53.1314 124.216 53.76C124.219 53.8333 124.24 53.8968 124.28 53.9503C124.322 54.0011 124.381 54.0405 124.457 54.0687C124.533 54.0969 124.597 54.1181 124.648 54.1321C124.698 54.1434 124.765 54.1547 124.846 54.166C124.863 54.1998 124.872 54.235 124.872 54.2717C124.872 54.3083 124.863 54.3393 124.846 54.3647C124.474 54.3478 124.113 54.3393 123.764 54.3393C123.42 54.3393 123.062 54.3478 122.69 54.3647C122.679 54.3196 122.673 54.2886 122.673 54.2717C122.673 54.2576 122.679 54.2224 122.69 54.166C122.783 54.1547 122.859 54.1434 122.918 54.1321C122.977 54.1181 123.051 54.0969 123.138 54.0687C123.225 54.0405 123.292 54.0011 123.337 53.9503C123.382 53.8968 123.406 53.8333 123.409 53.76C123.42 53.4809 123.426 53.1427 123.426 52.7452C123.426 52.6127 123.424 52.3871 123.421 52.0686C123.419 51.75 123.417 51.471 123.417 51.2313C123.256 51.1327 122.986 51.0749 122.605 51.058C122.594 51.0129 122.588 50.9776 122.588 50.9523C122.588 50.9353 122.594 50.9043 122.605 50.8592ZM123.269 49.0917C123.269 48.9479 123.32 48.8253 123.421 48.7238C123.526 48.6223 123.648 48.5716 123.789 48.5716C123.933 48.5716 124.056 48.6223 124.157 48.7238C124.259 48.8253 124.309 48.9479 124.309 49.0917C124.309 49.2326 124.259 49.3553 124.157 49.4596C124.056 49.561 123.933 49.6118 123.789 49.6118C123.648 49.6118 123.526 49.561 123.421 49.4596C123.32 49.3553 123.269 49.2326 123.269 49.0917ZM127.905 50.4956C128.184 50.4956 128.435 50.5449 128.658 50.6436C128.884 50.7422 129.075 50.879 129.233 51.0537C129.391 51.2285 129.512 51.4385 129.597 51.6838C129.681 51.9262 129.724 52.1912 129.724 52.4788C129.724 53.0651 129.559 53.5416 129.229 53.908C128.902 54.2773 128.461 54.462 127.905 54.462C127.629 54.462 127.378 54.4141 127.153 54.3182C126.93 54.2195 126.74 54.0828 126.582 53.908C126.424 53.7304 126.301 53.5204 126.214 53.278C126.129 53.0355 126.087 52.7691 126.087 52.4788C126.087 52.1912 126.129 51.9262 126.214 51.6838C126.298 51.4385 126.418 51.2285 126.573 51.0537C126.731 50.879 126.923 50.7422 127.148 50.6436C127.374 50.5449 127.626 50.4956 127.905 50.4956ZM127.905 50.7704C127.618 50.7704 127.388 50.91 127.216 51.1891C127.047 51.4681 126.962 51.898 126.962 52.4788C126.962 53.0595 127.047 53.4894 127.216 53.7685C127.388 54.0448 127.618 54.1829 127.905 54.1829C128.193 54.1829 128.421 54.0433 128.59 53.7643C128.762 53.4852 128.848 53.0567 128.848 52.4788C128.848 52.1884 128.826 51.9361 128.781 51.7219C128.736 51.5076 128.672 51.33 128.59 51.1891C128.509 51.0481 128.41 50.9438 128.294 50.8761C128.179 50.8057 128.049 50.7704 127.905 50.7704ZM133.239 54.166C133.256 54.1998 133.265 54.235 133.265 54.2717C133.265 54.2999 133.256 54.3309 133.239 54.3647C132.867 54.3478 132.506 54.3393 132.157 54.3393C131.813 54.3393 131.455 54.3478 131.083 54.3647C131.071 54.3196 131.066 54.2886 131.066 54.2717C131.066 54.2576 131.071 54.2224 131.083 54.166C131.176 54.1547 131.252 54.1434 131.311 54.1321C131.37 54.1181 131.444 54.0969 131.531 54.0687C131.618 54.0405 131.685 54.0011 131.73 53.9503C131.775 53.8968 131.799 53.8333 131.802 53.76C131.813 53.4809 131.818 53.1427 131.818 52.7452C131.818 52.6127 131.817 52.3871 131.814 52.0686C131.811 51.75 131.81 51.471 131.81 51.2313C131.649 51.1327 131.379 51.0749 130.998 51.058C130.987 51.0129 130.981 50.9776 130.981 50.9523C130.981 50.9353 130.987 50.9043 130.998 50.8592C131.545 50.8028 132.021 50.6873 132.427 50.5125C132.498 50.5407 132.547 50.5773 132.575 50.6224V51.2905C132.849 51.0509 133.111 50.8592 133.362 50.7154C133.613 50.5689 133.867 50.4956 134.123 50.4956C134.444 50.4956 134.671 50.5858 134.804 50.7662C134.939 50.9466 135.01 51.2285 135.015 51.6119L135.058 53.76C135.06 53.8333 135.082 53.8968 135.121 53.9503C135.163 54.0011 135.222 54.0405 135.299 54.0687C135.378 54.0969 135.442 54.1181 135.493 54.1321C135.544 54.1434 135.61 54.1547 135.692 54.166C135.703 54.2224 135.709 54.2604 135.709 54.2801C135.709 54.3027 135.703 54.3309 135.692 54.3647C135.328 54.3478 134.993 54.3393 134.685 54.3393C134.387 54.3393 134.055 54.3478 133.692 54.3647C133.68 54.3196 133.675 54.2858 133.675 54.2632C133.675 54.2435 133.68 54.2111 133.692 54.166C133.765 54.1547 133.826 54.1434 133.874 54.1321C133.924 54.1181 133.981 54.0969 134.043 54.0687C134.108 54.0405 134.155 54.0011 134.186 53.9503C134.22 53.8968 134.237 53.8333 134.237 53.76L134.246 51.7515C134.246 51.2412 134.092 50.9861 133.785 50.9861C133.497 50.9861 133.094 51.1778 132.575 51.5612C132.575 52.3815 132.587 53.1145 132.609 53.76C132.612 53.8333 132.633 53.8968 132.673 53.9503C132.715 54.0011 132.774 54.0405 132.85 54.0687C132.926 54.0969 132.99 54.1181 133.041 54.1321C133.091 54.1434 133.158 54.1547 133.239 54.166ZM138.32 54.462C138.181 54.462 138.056 54.4507 137.943 54.4281C137.833 54.4056 137.747 54.3816 137.685 54.3563C137.626 54.3309 137.546 54.2928 137.444 54.2421C137.334 54.2421 137.172 54.283 136.958 54.3647C136.921 54.3422 136.896 54.3168 136.882 54.2886C136.896 54.2435 136.913 54.0899 136.933 53.8277C136.955 53.5655 136.966 53.3315 136.966 53.1257C137.003 53.1088 137.069 53.1004 137.165 53.1004C137.216 53.2639 137.268 53.4034 137.322 53.519C137.378 53.6346 137.448 53.7473 137.533 53.8573C137.62 53.9644 137.725 54.0462 137.846 54.1025C137.97 54.1561 138.111 54.1829 138.269 54.1829C138.514 54.1829 138.706 54.1195 138.844 53.9926C138.985 53.8657 139.055 53.722 139.055 53.5613C139.055 53.4401 139.036 53.3372 138.996 53.2526C138.957 53.168 138.868 53.0792 138.73 52.9862C138.594 52.8904 138.4 52.7959 138.146 52.7029C137.988 52.6465 137.854 52.5944 137.744 52.5464C137.634 52.4985 137.52 52.4393 137.402 52.3688C137.286 52.2983 137.193 52.2265 137.123 52.1532C137.052 52.0771 136.995 51.9868 136.949 51.8825C136.904 51.7782 136.882 51.6641 136.882 51.54C136.882 51.4498 136.892 51.361 136.911 51.2736C136.934 51.1834 136.975 51.0904 137.034 50.9945C137.096 50.8987 137.172 50.8155 137.262 50.745C137.355 50.6718 137.478 50.6126 137.63 50.5674C137.785 50.5195 137.96 50.4956 138.155 50.4956C138.234 50.4956 138.303 50.4998 138.362 50.5082C138.424 50.5167 138.497 50.5322 138.582 50.5548C138.669 50.5745 138.717 50.5858 138.725 50.5886C138.787 50.5745 138.851 50.5562 138.916 50.5336C138.983 50.5111 139.021 50.4984 139.03 50.4956H139.14C139.208 50.9015 139.295 51.2468 139.402 51.5316C139.368 51.5682 139.313 51.5865 139.237 51.5865C139.003 51.3046 138.803 51.0988 138.637 50.9692C138.473 50.8367 138.287 50.7704 138.078 50.7704C137.915 50.7704 137.771 50.8071 137.647 50.8804C137.523 50.9537 137.461 51.065 137.461 51.2144C137.461 51.4033 137.536 51.5513 137.685 51.6584C137.837 51.7655 138.118 51.9023 138.527 52.0686C138.716 52.1447 138.864 52.2081 138.971 52.2589C139.081 52.3096 139.191 52.3702 139.301 52.4407C139.41 52.5112 139.491 52.5845 139.542 52.6606C139.595 52.7339 139.639 52.8227 139.673 52.927C139.706 53.0313 139.723 53.1525 139.723 53.2907C139.723 53.5895 139.585 53.8601 139.309 54.1025C139.036 54.3422 138.706 54.462 138.32 54.462Z" fill="#FEFEFE"/>
</g>
<g filter="url(#filter1_n_210_1348)">
<path d="M23.8974 28.0651C26.5022 28.1581 29.2156 28.2047 32.0375 28.2047H34.712C35.8439 28.1892 37.7975 28.1814 40.5729 28.1814C43.3637 28.1659 45.7437 28.1504 47.7128 28.1349C49.6974 28.1194 51.6665 28.0806 53.6201 28.0186C53.7442 29.0884 54.0078 30.2048 54.4109 31.3676C54.814 32.515 55.2016 33.4608 55.5738 34.205C55.9459 34.9337 56.4343 35.8175 57.039 36.8563C56.9149 37.1199 56.6436 37.3292 56.225 37.4843C55.6668 36.43 54.9923 35.4919 54.2016 34.6702C53.4108 33.8484 52.4108 33.0732 51.2014 32.3444C50.0075 31.6157 48.5113 31.0188 46.7128 30.5536C44.9297 30.0885 42.8986 29.7784 40.6194 29.6234H34.712C34.5105 36.3214 34.4097 41.3837 34.4097 44.8103H41.038C41.4256 44.8103 41.79 44.7793 42.1311 44.7173C42.4722 44.6398 42.79 44.5157 43.0846 44.3452C43.3947 44.1746 43.6583 44.0118 43.8754 43.8568C44.108 43.6862 44.3483 43.4381 44.5964 43.1125C44.8599 42.7714 45.0692 42.4923 45.2243 42.2753C45.3793 42.0582 45.5732 41.7171 45.8057 41.252C46.0383 40.7713 46.2166 40.4069 46.3406 40.1589C46.4647 39.9108 46.6507 39.4999 46.8988 38.9262C47.1624 38.3526 47.3562 37.9339 47.4802 37.6703C48.0229 37.9029 48.3175 38.0967 48.364 38.2518C47.4492 40.6395 46.9918 43.066 46.9918 45.5313C46.9918 47.981 47.4492 50.4153 48.364 52.834C48.2555 53.0511 47.9609 53.2527 47.4802 53.4387C46.5345 51.1595 45.8135 49.6323 45.3173 48.8571C44.17 47.136 42.7435 46.2678 41.038 46.2523H34.4097C34.4097 49.5858 34.495 53.8419 34.6655 59.0205C34.681 59.4236 34.8593 59.7724 35.2004 60.067C35.5415 60.3461 36.0299 60.5632 36.6656 60.7182C37.3168 60.8733 37.8595 60.9896 38.2936 61.0671C38.7433 61.1291 39.3247 61.1911 40.0379 61.2532C40.1 61.5633 40.131 61.7726 40.131 61.8811C40.131 62.0051 40.1 62.1602 40.0379 62.3462C37.4021 62.2532 34.7043 62.2067 31.9444 62.2067C29.1536 62.2067 26.4557 62.2532 23.8509 62.3462C23.7889 62.1602 23.7579 62.0051 23.7579 61.8811C23.7579 61.7726 23.7889 61.5633 23.8509 61.2532C24.3161 61.2066 24.6882 61.1679 24.9673 61.1369C25.2464 61.1059 25.6262 61.0516 26.1069 60.9741C26.603 60.8965 26.9984 60.8113 27.293 60.7182C27.6031 60.6097 27.9209 60.4779 28.2465 60.3229C28.5721 60.1678 28.8125 59.9818 28.9675 59.7647C29.1381 59.5476 29.2233 59.2996 29.2233 59.0205C29.4094 54.1675 29.5024 49.2757 29.5024 44.3452C29.5024 39.3216 29.4249 34.988 29.2699 31.3444C29.2543 30.9413 29.076 30.6002 28.7349 30.3211C28.4093 30.042 27.9132 29.8249 27.2465 29.6699C26.5798 29.5148 26.0449 29.414 25.6417 29.3675C25.2386 29.3055 24.6572 29.2357 23.8974 29.1582C23.8354 28.8791 23.8044 28.6853 23.8044 28.5768C23.8044 28.4838 23.8354 28.3132 23.8974 28.0651ZM60.481 28.0186C63.9851 28.1426 66.7372 28.2047 68.7373 28.2047C70.6289 28.2047 73.3268 28.1426 76.8308 28.0186C76.8929 28.2667 76.9239 28.4372 76.9239 28.5303C76.9239 28.7008 76.8929 28.8946 76.8308 29.1117C76.1176 29.1737 75.5362 29.2435 75.0866 29.321C74.6369 29.383 74.0865 29.4916 73.4353 29.6466C72.7841 29.8017 72.2879 30.0265 71.9468 30.3211C71.6057 30.6002 71.4352 30.9413 71.4352 31.3444C71.4197 32.3522 71.3964 34.7167 71.3654 38.4378C71.3499 42.159 71.3266 45.6398 71.2956 48.8803C71.2646 51.4696 71.2181 53.5938 71.1561 55.2528C71.1096 56.8963 71.001 58.7259 70.8305 60.7415C70.6754 62.7416 70.4506 64.3464 70.156 65.5557C69.8769 66.7806 69.4893 68.0288 68.9932 69.3002C68.497 70.5871 67.8923 71.5716 67.1791 72.2538C66.4814 72.936 65.6209 73.4942 64.5976 73.9283C63.5742 74.3625 62.3959 74.5795 61.0625 74.5795C58.8143 74.5795 57.07 74.0291 55.8296 72.9283C54.5892 71.8274 53.969 70.525 53.969 69.0211C53.969 67.7342 54.3101 66.7341 54.9923 66.0209C55.6745 65.3232 56.5738 64.9743 57.6902 64.9743C58.6049 64.9743 59.3879 65.2224 60.0391 65.7185C60.6903 66.2147 61.0159 66.9512 61.0159 67.928C61.0159 68.4551 60.8842 68.9203 60.6206 69.3234C60.357 69.742 60.0624 70.0444 59.7368 70.2304C59.4267 70.432 59.1399 70.6103 58.8763 70.7654C58.6127 70.9359 58.4809 71.0522 58.4809 71.1142C58.4809 71.7034 58.7057 72.184 59.1554 72.5562C59.6205 72.9283 60.2562 73.1143 61.0625 73.1143C61.9307 73.1143 62.6595 72.9515 63.2486 72.6259C63.8533 72.3003 64.3417 71.8429 64.7138 71.2538C65.1015 70.6646 65.3961 69.8428 65.5976 68.7885C65.7992 67.7342 65.931 66.6101 65.993 65.4162C66.0705 64.2223 66.1093 62.7261 66.1093 60.9276C66.1093 45.6088 66.0317 35.7478 65.8767 31.3444C65.8612 30.9413 65.6829 30.6002 65.3418 30.3211C65.0007 30.0265 64.5045 29.8017 63.8533 29.6466C63.2021 29.4916 62.6517 29.383 62.2021 29.321C61.7679 29.2435 61.1942 29.1737 60.481 29.1117C60.419 28.8326 60.388 28.6388 60.388 28.5303C60.388 28.3752 60.419 28.2047 60.481 28.0186Z" fill="#FEFEFE"/>
</g>
<g filter="url(#filter2_n_210_1348)">
<path d="M50.9668 5.11586C75.5677 5.11586 95.5117 25.1059 95.5117 49.7663C95.5117 74.4266 75.5677 94.4166 50.9668 94.4166C26.3661 94.4164 6.42285 74.4265 6.42285 49.7663C6.42285 25.106 26.3661 5.11611 50.9668 5.11586Z" stroke="#FEFEFE" stroke-width="0.433007"/>
</g>
<g filter="url(#filter3_n_210_1348)">
<path d="M51.1273 94.7191V99.3751" stroke="#FEFEFE" stroke-width="0.433007" stroke-linecap="round"/>
</g>
<g filter="url(#filter4_n_210_1348)">
<path d="M6.25171 49.5962H0.216491" stroke="#FEFEFE" stroke-width="0.433007" stroke-linecap="round"/>
</g>
<g filter="url(#filter5_n_210_1348)">
<path d="M51.1273 0.216503V4.87253" stroke="#FEFEFE" stroke-width="0.433007" stroke-linecap="round"/>
</g>
<defs>
<filter id="filter0_n_210_1348" x="78.6423" y="47.9838" width="61.0811" height="6.52893" filterUnits="userSpaceOnUse" color-interpolation-filters="sRGB">
<feFlood flood-opacity="0" result="BackgroundImageFix"/>
<feBlend mode="normal" in="SourceGraphic" in2="BackgroundImageFix" result="shape"/>
<feTurbulence type="fractalNoise" baseFrequency="9.2377262115478516 9.2377262115478516" stitchTiles="stitch" numOctaves="3" result="noise" seed="4376" />
<feColorMatrix in="noise" type="luminanceToAlpha" result="alphaNoise" />
<feComponentTransfer in="alphaNoise" result="coloredNoise1">
<feFuncA type="discrete" tableValues="1 1 1 1 1 1 1 1 1 1 1 1 1 1 1 1 1 1 1 1 1 1 1 1 1 1 1 1 1 1 1 1 1 1 1 1 1 1 1 1 1 1 1 1 1 1 1 1 1 1 1 0 0 0 0 0 0 0 0 0 0 0 0 0 0 0 0 0 0 0 0 0 0 0 0 0 0 0 0 0 0 0 0 0 0 0 0 0 0 0 0 0 0 0 0 0 0 0 0 0 "/>
</feComponentTransfer>
<feComposite operator="in" in2="shape" in="coloredNoise1" result="noise1Clipped" />
<feFlood flood-color="rgba(0, 0, 0, 0.25)" result="color1Flood" />
<feComposite operator="in" in2="noise1Clipped" in="color1Flood" result="color1" />
<feMerge result="effect1_noise_210_1348">
<feMergeNode in="shape" />
<feMergeNode in="color1" />
</feMerge>
</filter>
<filter id="filter1_n_210_1348" x="23.7579" y="28.0186" width="53.166" height="46.5609" filterUnits="userSpaceOnUse" color-interpolation-filters="sRGB">
<feFlood flood-opacity="0" result="BackgroundImageFix"/>
<feBlend mode="normal" in="SourceGraphic" in2="BackgroundImageFix" result="shape"/>
<feTurbulence type="fractalNoise" baseFrequency="9.2377262115478516 9.2377262115478516" stitchTiles="stitch" numOctaves="3" result="noise" seed="4539" />
<feColorMatrix in="noise" type="luminanceToAlpha" result="alphaNoise" />
<feComponentTransfer in="alphaNoise" result="coloredNoise1">
<feFuncA type="discrete" tableValues="1 1 1 1 1 1 1 1 1 1 1 1 1 1 1 1 1 1 1 1 1 1 1 1 1 1 1 1 1 1 1 1 1 1 1 1 1 1 1 1 1 1 1 1 1 1 1 1 1 1 1 0 0 0 0 0 0 0 0 0 0 0 0 0 0 0 0 0 0 0 0 0 0 0 0 0 0 0 0 0 0 0 0 0 0 0 0 0 0 0 0 0 0 0 0 0 0 0 0 0 "/>
</feComponentTransfer>
<feComposite operator="in" in2="shape" in="coloredNoise1" result="noise1Clipped" />
<feFlood flood-color="rgba(0, 0, 0, 0.25)" result="color1Flood" />
<feComposite operator="in" in2="noise1Clipped" in="color1Flood" result="color1" />
<feMerge result="effect1_noise_210_1348">
<feMergeNode in="shape" />
<feMergeNode in="color1" />
</feMerge>
</filter>
<filter id="filter2_n_210_1348" x="6.20605" y="4.89906" width="89.5224" height="89.7344" filterUnits="userSpaceOnUse" color-interpolation-filters="sRGB">
<feFlood flood-opacity="0" result="BackgroundImageFix"/>
<feBlend mode="normal" in="SourceGraphic" in2="BackgroundImageFix" result="shape"/>
<feTurbulence type="fractalNoise" baseFrequency="9.2377262115478516 9.2377262115478516" stitchTiles="stitch" numOctaves="3" result="noise" seed="9992" />
<feColorMatrix in="noise" type="luminanceToAlpha" result="alphaNoise" />
<feComponentTransfer in="alphaNoise" result="coloredNoise1">
<feFuncA type="discrete" tableValues="1 1 1 1 1 1 1 1 1 1 1 1 1 1 1 1 1 1 1 1 1 1 1 1 1 1 1 1 1 1 1 1 1 1 1 1 1 1 1 1 1 1 1 1 1 1 1 1 1 1 1 0 0 0 0 0 0 0 0 0 0 0 0 0 0 0 0 0 0 0 0 0 0 0 0 0 0 0 0 0 0 0 0 0 0 0 0 0 0 0 0 0 0 0 0 0 0 0 0 0 "/>
</feComponentTransfer>
<feComposite operator="in" in2="shape" in="coloredNoise1" result="noise1Clipped" />
<feFlood flood-color="rgba(0, 0, 0, 0.25)" result="color1Flood" />
<feComposite operator="in" in2="noise1Clipped" in="color1Flood" result="color1" />
<feMerge result="effect1_noise_210_1348">
<feMergeNode in="shape" />
<feMergeNode in="color1" />
</feMerge>
</filter>
<filter id="filter3_n_210_1348" x="50.9108" y="94.5026" width="0.432983" height="5.08904" filterUnits="userSpaceOnUse" color-interpolation-filters="sRGB">
<feFlood flood-opacity="0" result="BackgroundImageFix"/>
<feBlend mode="normal" in="SourceGraphic" in2="BackgroundImageFix" result="shape"/>
<feTurbulence type="fractalNoise" baseFrequency="1.1547157764434814 1.1547157764434814" stitchTiles="stitch" numOctaves="3" result="noise" seed="7141" />
<feColorMatrix in="noise" type="luminanceToAlpha" result="alphaNoise" />
<feComponentTransfer in="alphaNoise" result="coloredNoise1">
<feFuncA type="discrete" tableValues="1 1 1 1 1 1 1 1 1 1 1 1 1 1 1 1 1 1 1 1 1 1 1 1 1 1 1 1 1 1 1 1 1 1 1 1 1 1 1 1 1 1 1 1 1 1 1 1 1 1 1 0 0 0 0 0 0 0 0 0 0 0 0 0 0 0 0 0 0 0 0 0 0 0 0 0 0 0 0 0 0 0 0 0 0 0 0 0 0 0 0 0 0 0 0 0 0 0 0 0 "/>
</feComponentTransfer>
<feComposite operator="in" in2="shape" in="coloredNoise1" result="noise1Clipped" />
<feFlood flood-color="rgba(0, 0, 0, 0.25)" result="color1Flood" />
<feComposite operator="in" in2="noise1Clipped" in="color1Flood" result="color1" />
<feMerge result="effect1_noise_210_1348">
<feMergeNode in="shape" />
<feMergeNode in="color1" />
</feMerge>
</filter>
<filter id="filter4_n_210_1348" x="0" y="49.3797" width="6.4682" height="0.433006" filterUnits="userSpaceOnUse" color-interpolation-filters="sRGB">
<feFlood flood-opacity="0" result="BackgroundImageFix"/>
<feBlend mode="normal" in="SourceGraphic" in2="BackgroundImageFix" result="shape"/>
<feTurbulence type="fractalNoise" baseFrequency="9.2377262115478516 9.2377262115478516" stitchTiles="stitch" numOctaves="3" result="noise" seed="3186" />
<feColorMatrix in="noise" type="luminanceToAlpha" result="alphaNoise" />
<feComponentTransfer in="alphaNoise" result="coloredNoise1">
<feFuncA type="discrete" tableValues="1 1 1 1 1 1 1 1 1 1 1 1 1 1 1 1 1 1 1 1 1 1 1 1 1 1 1 1 1 1 1 1 1 1 1 1 1 1 1 1 1 1 1 1 1 1 1 1 1 1 1 0 0 0 0 0 0 0 0 0 0 0 0 0 0 0 0 0 0 0 0 0 0 0 0 0 0 0 0 0 0 0 0 0 0 0 0 0 0 0 0 0 0 0 0 0 0 0 0 0 "/>
</feComponentTransfer>
<feComposite operator="in" in2="shape" in="coloredNoise1" result="noise1Clipped" />
<feFlood flood-color="rgba(0, 0, 0, 0.25)" result="color1Flood" />
<feComposite operator="in" in2="noise1Clipped" in="color1Flood" result="color1" />
<feMerge result="effect1_noise_210_1348">
<feMergeNode in="shape" />
<feMergeNode in="color1" />
</feMerge>
</filter>
<filter id="filter5_n_210_1348" x="50.9108" y="0" width="0.432983" height="5.08904" filterUnits="userSpaceOnUse" color-interpolation-filters="sRGB">
<feFlood flood-opacity="0" result="BackgroundImageFix"/>
<feBlend mode="normal" in="SourceGraphic" in2="BackgroundImageFix" result="shape"/>
<feTurbulence type="fractalNoise" baseFrequency="1.1547157764434814 1.1547157764434814" stitchTiles="stitch" numOctaves="3" result="noise" seed="3961" />
<feColorMatrix in="noise" type="luminanceToAlpha" result="alphaNoise" />
<feComponentTransfer in="alphaNoise" result="coloredNoise1">
<feFuncA type="discrete" tableValues="1 1 1 1 1 1 1 1 1 1 1 1 1 1 1 1 1 1 1 1 1 1 1 1 1 1 1 1 1 1 1 1 1 1 1 1 1 1 1 1 1 1 1 1 1 1 1 1 1 1 1 0 0 0 0 0 0 0 0 0 0 0 0 0 0 0 0 0 0 0 0 0 0 0 0 0 0 0 0 0 0 0 0 0 0 0 0 0 0 0 0 0 0 0 0 0 0 0 0 0 "/>
</feComponentTransfer>
<feComposite operator="in" in2="shape" in="coloredNoise1" result="noise1Clipped" />
<feFlood flood-color="rgba(0, 0, 0, 0.25)" result="color1Flood" />
<feComposite operator="in" in2="noise1Clipped" in="color1Flood" result="color1" />
<feMerge result="effect1_noise_210_1348">
<feMergeNode in="shape" />
<feMergeNode in="color1" />
</feMerge>
</filter>
</defs>
</svg>
