<svg width="497" height="550" viewBox="0 0 497 550" fill="none" xmlns="http://www.w3.org/2000/svg">
<path d="M247 527.844V548.037" stroke="#334B2C" stroke-width="2" stroke-linecap="round"/>
<path d="M247 1V21.1926" stroke="#334B2C" stroke-width="2" stroke-linecap="round"/>
<path d="M473 274.519H495.229" stroke="#334B2C" stroke-width="2" stroke-linecap="round"/>
<path d="M1 274.519H21.3766" stroke="#334B2C" stroke-width="2" stroke-linecap="round"/>
<path d="M103.424 130.755C117.643 131.263 132.454 131.517 147.857 131.517H162.457C168.635 131.432 179.299 131.39 194.449 131.39C209.684 131.305 222.675 131.22 233.424 131.136C244.257 131.051 255.006 130.84 265.67 130.501C266.347 136.341 267.786 142.435 269.986 148.782C272.187 155.045 274.303 160.208 276.334 164.271C278.365 168.248 281.031 173.073 284.332 178.743C283.655 180.182 282.174 181.325 279.889 182.171C276.842 176.416 273.16 171.295 268.844 166.81C264.527 162.324 259.068 158.092 252.467 154.114C245.95 150.136 237.783 146.878 227.965 144.339C218.232 141.8 207.145 140.107 194.703 139.261H162.457C161.357 175.823 160.807 203.457 160.807 222.161H196.988C199.104 222.161 201.093 221.992 202.955 221.653C204.817 221.23 206.552 220.553 208.16 219.622C209.853 218.691 211.292 217.802 212.477 216.956C213.746 216.025 215.058 214.671 216.412 212.894C217.851 211.032 218.993 209.508 219.84 208.323C220.686 207.138 221.744 205.276 223.014 202.737C224.283 200.114 225.257 198.125 225.934 196.771C226.611 195.416 227.626 193.174 228.98 190.042C230.419 186.91 231.477 184.625 232.154 183.187C235.117 184.456 236.725 185.514 236.979 186.36C231.985 199.394 229.488 212.64 229.488 226.097C229.488 239.469 231.985 252.757 236.979 265.96C236.386 267.145 234.778 268.245 232.154 269.261C226.992 256.819 223.056 248.483 220.348 244.251C214.085 234.856 206.298 230.117 196.988 230.032H160.807C160.807 248.229 161.272 271.461 162.203 299.729C162.288 301.93 163.261 303.834 165.123 305.442C166.985 306.966 169.651 308.151 173.121 308.997C176.676 309.843 179.638 310.478 182.008 310.901C184.462 311.24 187.636 311.578 191.529 311.917C191.868 313.61 192.037 314.752 192.037 315.345C192.037 316.022 191.868 316.868 191.529 317.884C177.141 317.376 162.415 317.122 147.35 317.122C132.115 317.122 117.389 317.376 103.17 317.884C102.831 316.868 102.662 316.022 102.662 315.345C102.662 314.752 102.831 313.61 103.17 311.917C105.709 311.663 107.74 311.451 109.264 311.282C110.787 311.113 112.861 310.817 115.484 310.394C118.193 309.97 120.351 309.505 121.959 308.997C123.652 308.405 125.387 307.685 127.164 306.839C128.941 305.993 130.253 304.977 131.1 303.792C132.031 302.607 132.496 301.253 132.496 299.729C133.512 273.239 134.02 246.536 134.02 219.622C134.02 192.2 133.596 168.545 132.75 148.655C132.665 146.455 131.692 144.593 129.83 143.069C128.053 141.546 125.344 140.361 121.705 139.515C118.066 138.668 115.146 138.118 112.945 137.864C110.745 137.526 107.571 137.145 103.424 136.722C103.085 135.198 102.916 134.14 102.916 133.548C102.916 133.04 103.085 132.109 103.424 130.755ZM303.121 130.501C322.249 131.178 337.271 131.517 348.189 131.517C358.515 131.517 373.242 131.178 392.369 130.501C392.708 131.855 392.877 132.786 392.877 133.294C392.877 134.225 392.708 135.283 392.369 136.468C388.476 136.806 385.302 137.187 382.848 137.61C380.393 137.949 377.389 138.541 373.834 139.388C370.279 140.234 367.571 141.461 365.709 143.069C363.847 144.593 362.916 146.455 362.916 148.655C362.831 154.157 362.704 167.063 362.535 187.376C362.451 207.688 362.324 226.689 362.154 244.378C361.985 258.512 361.731 270.107 361.393 279.163C361.139 288.134 360.546 298.121 359.615 309.124C358.769 320.042 357.542 328.802 355.934 335.403C354.41 342.09 352.294 348.903 349.586 355.843C346.878 362.868 343.577 368.242 339.684 371.966C335.875 375.69 331.178 378.737 325.592 381.106C320.006 383.476 313.574 384.661 306.295 384.661C294.023 384.661 284.501 381.657 277.73 375.647C270.96 369.638 267.574 362.529 267.574 354.319C267.574 347.295 269.436 341.836 273.16 337.942C276.884 334.134 281.793 332.229 287.887 332.229C292.88 332.229 297.154 333.584 300.709 336.292C304.264 339 306.041 343.021 306.041 348.353C306.041 351.23 305.322 353.769 303.883 355.97C302.444 358.255 300.836 359.905 299.059 360.921C297.366 362.021 295.8 362.994 294.361 363.841C292.923 364.772 292.203 365.407 292.203 365.745C292.203 368.961 293.43 371.585 295.885 373.616C298.424 375.647 301.894 376.663 306.295 376.663C311.035 376.663 315.012 375.774 318.229 373.997C321.529 372.22 324.195 369.723 326.227 366.507C328.342 363.291 329.951 358.805 331.051 353.05C332.151 347.295 332.87 341.159 333.209 334.642C333.632 328.125 333.844 319.957 333.844 310.14C333.844 226.52 333.421 172.692 332.574 148.655C332.49 146.455 331.516 144.593 329.654 143.069C327.792 141.461 325.084 140.234 321.529 139.388C317.975 138.541 314.97 137.949 312.516 137.61C310.146 137.187 307.014 136.806 303.121 136.468C302.783 134.944 302.613 133.886 302.613 133.294C302.613 132.448 302.783 131.517 303.121 130.501Z" fill="#334B2C"/>
<path d="M472.99 274.518C472.99 414.426 371.808 527.844 246.995 527.844C122.181 527.844 21 414.426 21 274.518C21 134.61 122.181 21.1924 246.995 21.1924C371.808 21.1924 472.99 134.61 472.99 274.518Z" stroke="#334B2C" stroke-width="2"/>
<path d="M104.79 403.097C105.947 403.097 107.097 403.178 108.239 403.339C109.396 403.485 110.502 403.668 111.557 403.888C112.626 404.093 113.637 404.298 114.589 404.503C115.542 404.708 116.398 404.855 117.16 404.943C116.984 405.47 116.896 406.4 116.896 407.733C116.896 410.326 117.285 412.575 118.061 414.479C117.973 414.743 117.702 414.904 117.248 414.962L116.303 412.941C115.834 411.93 115.271 410.934 114.611 409.953C113.952 408.957 113.161 408.07 112.238 407.294C111.315 406.503 110.239 405.866 109.008 405.382C107.792 404.899 106.386 404.657 104.79 404.657C103.413 404.657 102.189 404.884 101.12 405.338C100.051 405.792 99.1133 406.408 98.3076 407.184C97.502 407.946 96.8208 408.839 96.2642 409.865C95.7075 410.875 95.2534 411.952 94.9019 413.095C94.5649 414.237 94.3159 415.409 94.1548 416.61C94.0083 417.812 93.9351 418.976 93.9351 420.104C93.9351 421.979 94.1768 423.773 94.6602 425.487C95.1582 427.201 95.9272 428.717 96.9673 430.036C98.0073 431.339 99.3257 432.379 100.922 433.156C102.534 433.932 104.453 434.32 106.679 434.32C110.942 434.32 114.165 432.987 116.347 430.321C116.582 430.321 116.772 430.387 116.918 430.519C117.08 430.651 117.16 430.812 117.16 431.002C116.457 432.042 115.6 432.943 114.589 433.705C113.593 434.467 112.531 435.097 111.403 435.595C110.275 436.078 109.133 436.437 107.976 436.671C106.833 436.906 105.771 437.023 104.79 437.023C103.72 437.023 102.563 436.906 101.318 436.671C100.087 436.452 98.8496 436.078 97.6045 435.551C96.374 435.023 95.1875 434.335 94.0449 433.485C92.917 432.621 91.9136 431.566 91.0347 430.321C90.1558 429.062 89.4526 427.589 88.9253 425.905C88.3979 424.22 88.1343 422.287 88.1343 420.104C88.1343 417.907 88.3979 415.966 88.9253 414.281C89.4526 412.582 90.1558 411.103 91.0347 409.843C91.9282 408.583 92.9463 407.528 94.0889 406.679C95.2461 405.814 96.4399 405.119 97.6704 404.591C98.9009 404.049 100.131 403.668 101.362 403.449C102.592 403.214 103.735 403.097 104.79 403.097ZM133.714 416.149C135.165 416.149 136.468 416.405 137.625 416.918C138.797 417.431 139.793 418.141 140.614 419.049C141.434 419.958 142.064 421.049 142.503 422.323C142.943 423.583 143.163 424.96 143.163 426.454C143.163 429.501 142.306 431.977 140.592 433.881C138.893 435.8 136.6 436.759 133.714 436.759C132.279 436.759 130.975 436.51 129.803 436.012C128.646 435.5 127.657 434.789 126.837 433.881C126.017 432.958 125.379 431.867 124.925 430.607C124.486 429.347 124.266 427.963 124.266 426.454C124.266 424.96 124.486 423.583 124.925 422.323C125.365 421.049 125.987 419.958 126.793 419.049C127.613 418.141 128.609 417.431 129.781 416.918C130.953 416.405 132.264 416.149 133.714 416.149ZM133.714 417.577C132.22 417.577 131.026 418.302 130.133 419.752C129.254 421.203 128.814 423.437 128.814 426.454C128.814 429.472 129.254 431.706 130.133 433.156C131.026 434.591 132.22 435.309 133.714 435.309C135.208 435.309 136.395 434.584 137.274 433.134C138.167 431.684 138.614 429.457 138.614 426.454C138.614 424.945 138.497 423.634 138.263 422.521C138.028 421.408 137.699 420.485 137.274 419.752C136.849 419.02 136.336 418.478 135.736 418.126C135.135 417.76 134.461 417.577 133.714 417.577ZM161.431 435.221C161.519 435.397 161.562 435.58 161.562 435.771C161.562 435.917 161.519 436.078 161.431 436.254C159.497 436.166 157.622 436.122 155.806 436.122C154.019 436.122 152.158 436.166 150.225 436.254C150.166 436.02 150.137 435.858 150.137 435.771C150.137 435.697 150.166 435.514 150.225 435.221C150.708 435.163 151.104 435.104 151.411 435.045C151.719 434.972 152.1 434.862 152.554 434.716C153.008 434.569 153.352 434.364 153.586 434.101C153.821 433.822 153.945 433.493 153.96 433.112C154.019 431.662 154.048 429.904 154.048 427.838C154.048 427.15 154.041 425.978 154.026 424.323C154.011 422.667 154.004 421.217 154.004 419.972C153.169 419.459 151.763 419.159 149.785 419.071C149.727 418.837 149.697 418.654 149.697 418.522C149.697 418.434 149.727 418.273 149.785 418.039C152.627 417.746 155.103 417.145 157.212 416.237C157.578 416.383 157.834 416.574 157.981 416.808V420.28C159.402 419.035 160.764 418.039 162.068 417.292C163.372 416.53 164.69 416.149 166.023 416.149C167.693 416.149 168.872 416.618 169.561 417.555C170.264 418.493 170.63 419.958 170.659 421.95L170.879 433.112C170.894 433.493 171.003 433.822 171.208 434.101C171.428 434.364 171.736 434.569 172.131 434.716C172.542 434.862 172.878 434.972 173.142 435.045C173.406 435.104 173.75 435.163 174.175 435.221C174.233 435.514 174.263 435.712 174.263 435.814C174.263 435.932 174.233 436.078 174.175 436.254C172.285 436.166 170.542 436.122 168.945 436.122C167.393 436.122 165.671 436.166 163.782 436.254C163.723 436.02 163.694 435.844 163.694 435.727C163.694 435.624 163.723 435.456 163.782 435.221C164.163 435.163 164.478 435.104 164.727 435.045C164.99 434.972 165.283 434.862 165.605 434.716C165.942 434.569 166.191 434.364 166.353 434.101C166.528 433.822 166.616 433.493 166.616 433.112L166.66 422.675C166.66 420.023 165.862 418.698 164.265 418.698C162.771 418.698 160.676 419.694 157.981 421.686C157.981 425.949 158.04 429.757 158.157 433.112C158.171 433.493 158.281 433.822 158.486 434.101C158.706 434.364 159.014 434.569 159.409 434.716C159.805 434.862 160.134 434.972 160.398 435.045C160.662 435.104 161.006 435.163 161.431 435.221ZM187.829 436.759C187.111 436.759 186.459 436.701 185.873 436.583C185.302 436.466 184.855 436.342 184.533 436.21C184.225 436.078 183.808 435.88 183.28 435.617C182.709 435.617 181.867 435.829 180.753 436.254C180.563 436.137 180.431 436.005 180.358 435.858C180.431 435.624 180.519 434.826 180.622 433.463C180.739 432.101 180.797 430.885 180.797 429.816C180.988 429.728 181.332 429.684 181.83 429.684C182.094 430.534 182.365 431.259 182.643 431.859C182.936 432.46 183.302 433.046 183.742 433.617C184.196 434.174 184.738 434.599 185.368 434.892C186.012 435.17 186.745 435.309 187.565 435.309C188.839 435.309 189.835 434.979 190.553 434.32C191.286 433.661 191.652 432.914 191.652 432.079C191.652 431.449 191.549 430.915 191.344 430.475C191.139 430.036 190.678 429.574 189.96 429.091C189.257 428.593 188.246 428.102 186.928 427.619C186.107 427.326 185.412 427.055 184.84 426.806C184.269 426.557 183.676 426.249 183.061 425.883C182.46 425.517 181.977 425.143 181.61 424.762C181.244 424.367 180.944 423.898 180.709 423.356C180.475 422.814 180.358 422.221 180.358 421.576C180.358 421.107 180.409 420.646 180.512 420.192C180.629 419.723 180.841 419.24 181.149 418.742C181.471 418.244 181.867 417.812 182.335 417.445C182.819 417.064 183.456 416.757 184.247 416.522C185.053 416.273 185.961 416.149 186.972 416.149C187.382 416.149 187.741 416.171 188.048 416.215C188.371 416.259 188.751 416.339 189.191 416.457C189.645 416.559 189.894 416.618 189.938 416.632C190.26 416.559 190.59 416.464 190.927 416.347C191.278 416.229 191.476 416.164 191.52 416.149H192.091C192.443 418.258 192.897 420.053 193.454 421.532C193.278 421.723 192.992 421.818 192.597 421.818C191.381 420.353 190.341 419.284 189.477 418.61C188.627 417.921 187.66 417.577 186.576 417.577C185.727 417.577 184.979 417.768 184.335 418.148C183.69 418.529 183.368 419.108 183.368 419.884C183.368 420.866 183.756 421.635 184.533 422.191C185.324 422.748 186.781 423.458 188.905 424.323C189.887 424.718 190.656 425.048 191.212 425.312C191.784 425.575 192.355 425.89 192.926 426.256C193.498 426.623 193.915 427.003 194.179 427.399C194.457 427.78 194.684 428.241 194.86 428.783C195.036 429.325 195.124 429.955 195.124 430.673C195.124 432.226 194.406 433.632 192.97 434.892C191.549 436.137 189.835 436.759 187.829 436.759ZM207.547 412.414C207.693 412.355 207.862 412.326 208.052 412.326C208.243 412.326 208.44 412.355 208.646 412.414V417.226H215.303C215.391 417.445 215.435 417.716 215.435 418.039C215.435 418.317 215.391 418.573 215.303 418.808H208.646V430.541C208.646 432.855 209.708 434.013 211.832 434.013C212.637 434.013 213.326 433.859 213.897 433.551C214.483 433.244 215.127 432.782 215.831 432.167C216.197 432.211 216.438 432.387 216.556 432.694C215.911 433.852 214.959 434.818 213.699 435.595C212.439 436.371 211.055 436.759 209.546 436.759C206.001 436.759 204.229 434.613 204.229 430.321V418.808H201.526C201.468 418.544 201.438 418.375 201.438 418.302C201.438 418.288 201.468 418.119 201.526 417.797C202.229 417.445 202.764 417.16 203.13 416.94C203.511 416.706 203.987 416.376 204.559 415.951C205.145 415.526 205.672 415.028 206.141 414.457C206.624 413.871 207.093 413.19 207.547 412.414ZM221.179 418.039C224.021 417.746 226.496 417.145 228.605 416.237C228.972 416.383 229.228 416.574 229.375 416.808V420.587C229.917 419.562 230.722 418.566 231.792 417.599C232.875 416.632 234.003 416.149 235.175 416.149C236.054 416.149 236.765 416.413 237.307 416.94C237.863 417.453 238.142 418.163 238.142 419.071C238.142 419.936 237.885 420.609 237.373 421.093C236.86 421.576 236.215 421.818 235.439 421.818C234.721 421.818 234.128 421.591 233.659 421.137C233.205 420.668 232.956 420.053 232.912 419.291C232.297 419.555 231.594 420.141 230.803 421.049C230.026 421.957 229.55 422.858 229.375 423.751C229.375 427.018 229.433 430.138 229.55 433.112C229.565 433.493 229.704 433.822 229.968 434.101C230.231 434.364 230.62 434.569 231.132 434.716C231.645 434.862 232.07 434.972 232.407 435.045C232.744 435.104 233.183 435.163 233.725 435.221C233.813 435.397 233.857 435.58 233.857 435.771C233.857 435.917 233.813 436.078 233.725 436.254C231.528 436.166 229.353 436.122 227.199 436.122C225.412 436.122 223.552 436.166 221.618 436.254C221.56 436.02 221.53 435.858 221.53 435.771C221.53 435.697 221.56 435.514 221.618 435.221C222.102 435.163 222.497 435.104 222.805 435.045C223.112 434.972 223.493 434.862 223.947 434.716C224.401 434.569 224.746 434.364 224.98 434.101C225.214 433.822 225.339 433.493 225.354 433.112C225.412 431.662 225.441 429.904 225.441 427.838C225.441 427.15 225.434 425.978 225.419 424.323C225.405 422.667 225.397 421.217 225.397 419.972C224.562 419.459 223.156 419.159 221.179 419.071C221.12 418.837 221.091 418.654 221.091 418.522C221.091 418.434 221.12 418.273 221.179 418.039ZM242.831 416.632C243.358 416.662 243.885 416.691 244.413 416.72C244.94 416.75 245.357 416.771 245.665 416.786C245.973 416.801 246.258 416.808 246.522 416.808C246.742 416.808 246.998 416.801 247.291 416.786C247.584 416.771 247.979 416.75 248.478 416.72C248.99 416.691 249.481 416.662 249.95 416.632C250.213 416.72 250.426 416.947 250.587 417.313C250.572 417.431 250.543 417.606 250.499 417.841C250.47 418.061 250.44 418.332 250.411 418.654C250.396 418.961 250.389 419.342 250.389 419.796L250.345 430.233C250.345 432.87 251.144 434.188 252.74 434.188C254.22 434.188 256.322 433.214 259.046 431.266C259.046 426.901 258.98 423.078 258.849 419.796C258.849 419.533 258.797 419.298 258.695 419.093C258.592 418.888 258.431 418.712 258.211 418.566C258.006 418.419 257.816 418.302 257.64 418.214C257.479 418.112 257.237 418.024 256.915 417.951C256.593 417.863 256.366 417.812 256.234 417.797C256.102 417.768 255.882 417.724 255.575 417.665C255.516 417.431 255.487 417.255 255.487 417.138C255.487 417.035 255.516 416.867 255.575 416.632C256.087 416.662 256.607 416.691 257.135 416.72C257.677 416.75 258.102 416.771 258.409 416.786C258.717 416.801 259.002 416.808 259.266 416.808C259.486 416.808 259.742 416.801 260.035 416.786C260.328 416.771 260.724 416.75 261.222 416.72C261.734 416.691 262.225 416.662 262.694 416.632C262.767 416.676 262.826 416.72 262.87 416.764C262.928 416.793 262.972 416.837 263.001 416.896C263.045 416.94 263.075 416.977 263.089 417.006C263.104 417.021 263.126 417.072 263.155 417.16C263.185 417.233 263.207 417.284 263.221 417.313C263.104 418.104 263.045 418.932 263.045 419.796C262.958 421.95 262.914 423.7 262.914 425.048C262.914 425.751 262.928 426.93 262.958 428.585C262.987 430.241 263.001 431.691 263.001 432.936C263.836 433.419 265.243 433.72 267.22 433.837C267.293 434.203 267.33 434.394 267.33 434.408C267.33 434.496 267.293 434.65 267.22 434.87C264.452 435.133 261.976 435.734 259.793 436.671C259.413 436.51 259.164 436.312 259.046 436.078V432.65C257.582 433.91 256.197 434.914 254.894 435.661C253.604 436.393 252.301 436.759 250.982 436.759C249.312 436.759 248.126 436.291 247.423 435.353C246.734 434.416 246.375 432.943 246.346 430.937L246.17 419.796C246.141 419.459 246.075 419.21 245.973 419.049C245.885 418.874 245.731 418.712 245.511 418.566C245.306 418.419 245.116 418.302 244.94 418.214C244.764 418.112 244.515 418.024 244.193 417.951C243.871 417.863 243.644 417.812 243.512 417.797C243.38 417.768 243.153 417.724 242.831 417.665C242.772 417.431 242.743 417.255 242.743 417.138C242.743 417.035 242.772 416.867 242.831 416.632ZM290.564 430.409C290.916 430.482 291.201 430.644 291.421 430.893C290.688 432.855 289.553 434.328 288.015 435.309C286.477 436.276 284.807 436.759 283.005 436.759C282.112 436.759 281.24 436.642 280.391 436.408C279.541 436.188 278.713 435.822 277.908 435.309C277.117 434.796 276.421 434.167 275.82 433.419C275.234 432.658 274.758 431.713 274.392 430.585C274.041 429.442 273.865 428.183 273.865 426.806C273.865 423.627 274.839 421.056 276.787 419.093C278.735 417.13 281.167 416.149 284.082 416.149C286.133 416.149 287.803 416.596 289.092 417.489C290.396 418.368 291.047 419.496 291.047 420.873C291.047 421.649 290.791 422.294 290.278 422.807C289.766 423.319 289.136 423.576 288.389 423.576C287.598 423.576 286.96 423.349 286.477 422.895C285.994 422.426 285.752 421.884 285.752 421.269C285.752 420.155 286.316 419.452 287.444 419.159C287.341 418.822 287.012 418.478 286.455 418.126C285.898 417.76 285.107 417.577 284.082 417.577C283.555 417.577 283.057 417.643 282.588 417.775C282.119 417.892 281.614 418.148 281.072 418.544C280.544 418.939 280.09 419.459 279.709 420.104C279.343 420.749 279.036 421.649 278.787 422.807C278.538 423.949 278.413 425.282 278.413 426.806C278.413 427.831 278.516 428.761 278.721 429.596C278.94 430.431 279.277 431.186 279.731 431.859C280.186 432.533 280.808 433.061 281.599 433.441C282.39 433.822 283.32 434.013 284.39 434.013C285.063 434.013 285.701 433.925 286.301 433.749C286.902 433.559 287.385 433.361 287.751 433.156C288.132 432.951 288.535 432.643 288.96 432.233C289.399 431.808 289.692 431.508 289.839 431.332C289.985 431.142 290.227 430.834 290.564 430.409ZM302.943 412.414C303.09 412.355 303.258 412.326 303.449 412.326C303.639 412.326 303.837 412.355 304.042 412.414V417.226H310.7C310.788 417.445 310.832 417.716 310.832 418.039C310.832 418.317 310.788 418.573 310.7 418.808H304.042V430.541C304.042 432.855 305.104 434.013 307.228 434.013C308.034 434.013 308.722 433.859 309.293 433.551C309.879 433.244 310.524 432.782 311.227 432.167C311.593 432.211 311.835 432.387 311.952 432.694C311.308 433.852 310.355 434.818 309.096 435.595C307.836 436.371 306.452 436.759 304.943 436.759C301.398 436.759 299.625 434.613 299.625 430.321V418.808H296.923C296.864 418.544 296.835 418.375 296.835 418.302C296.835 418.288 296.864 418.119 296.923 417.797C297.626 417.445 298.161 417.16 298.527 416.94C298.908 416.706 299.384 416.376 299.955 415.951C300.541 415.526 301.068 415.028 301.537 414.457C302.021 413.871 302.489 413.19 302.943 412.414ZM316.575 418.039C319.417 417.746 321.893 417.145 324.002 416.237C324.368 416.383 324.625 416.574 324.771 416.808C324.771 424.411 324.83 429.845 324.947 433.112C324.961 433.493 325.071 433.822 325.276 434.101C325.496 434.364 325.804 434.569 326.199 434.716C326.595 434.862 326.924 434.972 327.188 435.045C327.452 435.104 327.796 435.163 328.221 435.221C328.309 435.397 328.353 435.58 328.353 435.771C328.353 435.961 328.309 436.122 328.221 436.254C326.287 436.166 324.412 436.122 322.596 436.122C320.809 436.122 318.948 436.166 317.015 436.254C316.956 436.02 316.927 435.858 316.927 435.771C316.927 435.697 316.956 435.514 317.015 435.221C317.498 435.163 317.894 435.104 318.201 435.045C318.509 434.972 318.89 434.862 319.344 434.716C319.798 434.569 320.142 434.364 320.376 434.101C320.611 433.822 320.735 433.493 320.75 433.112C320.809 431.662 320.838 429.904 320.838 427.838C320.838 427.15 320.831 425.978 320.816 424.323C320.801 422.667 320.794 421.217 320.794 419.972C319.959 419.459 318.553 419.159 316.575 419.071C316.517 418.837 316.487 418.654 316.487 418.522C316.487 418.434 316.517 418.273 316.575 418.039ZM320.025 408.854C320.025 408.107 320.289 407.47 320.816 406.942C321.358 406.415 321.995 406.151 322.728 406.151C323.475 406.151 324.112 406.415 324.639 406.942C325.167 407.47 325.43 408.107 325.43 408.854C325.43 409.586 325.167 410.224 324.639 410.766C324.112 411.293 323.475 411.557 322.728 411.557C321.995 411.557 321.358 411.293 320.816 410.766C320.289 410.224 320.025 409.586 320.025 408.854ZM344.116 416.149C345.566 416.149 346.87 416.405 348.027 416.918C349.199 417.431 350.195 418.141 351.015 419.049C351.835 419.958 352.465 421.049 352.905 422.323C353.344 423.583 353.564 424.96 353.564 426.454C353.564 429.501 352.707 431.977 350.993 433.881C349.294 435.8 347.001 436.759 344.116 436.759C342.68 436.759 341.376 436.51 340.205 436.012C339.047 435.5 338.059 434.789 337.238 433.881C336.418 432.958 335.781 431.867 335.327 430.607C334.887 429.347 334.667 427.963 334.667 426.454C334.667 424.96 334.887 423.583 335.327 422.323C335.766 421.049 336.389 419.958 337.194 419.049C338.015 418.141 339.011 417.431 340.183 416.918C341.354 416.405 342.666 416.149 344.116 416.149ZM344.116 417.577C342.622 417.577 341.428 418.302 340.534 419.752C339.655 421.203 339.216 423.437 339.216 426.454C339.216 429.472 339.655 431.706 340.534 433.156C341.428 434.591 342.622 435.309 344.116 435.309C345.61 435.309 346.796 434.584 347.675 433.134C348.569 431.684 349.016 429.457 349.016 426.454C349.016 424.945 348.898 423.634 348.664 422.521C348.43 421.408 348.1 420.485 347.675 419.752C347.25 419.02 346.738 418.478 346.137 418.126C345.537 417.76 344.863 417.577 344.116 417.577ZM371.832 435.221C371.92 435.397 371.964 435.58 371.964 435.771C371.964 435.917 371.92 436.078 371.832 436.254C369.898 436.166 368.023 436.122 366.207 436.122C364.42 436.122 362.56 436.166 360.626 436.254C360.567 436.02 360.538 435.858 360.538 435.771C360.538 435.697 360.567 435.514 360.626 435.221C361.109 435.163 361.505 435.104 361.812 435.045C362.12 434.972 362.501 434.862 362.955 434.716C363.409 434.569 363.753 434.364 363.988 434.101C364.222 433.822 364.347 433.493 364.361 433.112C364.42 431.662 364.449 429.904 364.449 427.838C364.449 427.15 364.442 425.978 364.427 424.323C364.413 422.667 364.405 421.217 364.405 419.972C363.57 419.459 362.164 419.159 360.187 419.071C360.128 418.837 360.099 418.654 360.099 418.522C360.099 418.434 360.128 418.273 360.187 418.039C363.028 417.746 365.504 417.145 367.613 416.237C367.979 416.383 368.236 416.574 368.382 416.808V420.28C369.803 419.035 371.166 418.039 372.469 417.292C373.773 416.53 375.091 416.149 376.424 416.149C378.094 416.149 379.273 416.618 379.962 417.555C380.665 418.493 381.031 419.958 381.061 421.95L381.28 433.112C381.295 433.493 381.405 433.822 381.61 434.101C381.83 434.364 382.137 434.569 382.533 434.716C382.943 434.862 383.28 434.972 383.543 435.045C383.807 435.104 384.151 435.163 384.576 435.221C384.635 435.514 384.664 435.712 384.664 435.814C384.664 435.932 384.635 436.078 384.576 436.254C382.687 436.166 380.943 436.122 379.347 436.122C377.794 436.122 376.073 436.166 374.183 436.254C374.125 436.02 374.095 435.844 374.095 435.727C374.095 435.624 374.125 435.456 374.183 435.221C374.564 435.163 374.879 435.104 375.128 435.045C375.392 434.972 375.685 434.862 376.007 434.716C376.344 434.569 376.593 434.364 376.754 434.101C376.93 433.822 377.018 433.493 377.018 433.112L377.062 422.675C377.062 420.023 376.263 418.698 374.667 418.698C373.172 418.698 371.078 419.694 368.382 421.686C368.382 425.949 368.441 429.757 368.558 433.112C368.573 433.493 368.683 433.822 368.888 434.101C369.107 434.364 369.415 434.569 369.811 434.716C370.206 434.862 370.536 434.972 370.799 435.045C371.063 435.104 371.407 435.163 371.832 435.221ZM398.23 436.759C397.512 436.759 396.86 436.701 396.274 436.583C395.703 436.466 395.256 436.342 394.934 436.21C394.626 436.078 394.209 435.88 393.682 435.617C393.11 435.617 392.268 435.829 391.155 436.254C390.964 436.137 390.833 436.005 390.759 435.858C390.833 435.624 390.92 434.826 391.023 433.463C391.14 432.101 391.199 430.885 391.199 429.816C391.389 429.728 391.733 429.684 392.231 429.684C392.495 430.534 392.766 431.259 393.044 431.859C393.337 432.46 393.704 433.046 394.143 433.617C394.597 434.174 395.139 434.599 395.769 434.892C396.414 435.17 397.146 435.309 397.966 435.309C399.241 435.309 400.237 434.979 400.955 434.32C401.687 433.661 402.053 432.914 402.053 432.079C402.053 431.449 401.951 430.915 401.746 430.475C401.541 430.036 401.079 429.574 400.361 429.091C399.658 428.593 398.647 428.102 397.329 427.619C396.509 427.326 395.813 427.055 395.242 426.806C394.67 426.557 394.077 426.249 393.462 425.883C392.861 425.517 392.378 425.143 392.012 424.762C391.646 424.367 391.345 423.898 391.111 423.356C390.876 422.814 390.759 422.221 390.759 421.576C390.759 421.107 390.811 420.646 390.913 420.192C391.03 419.723 391.243 419.24 391.55 418.742C391.873 418.244 392.268 417.812 392.737 417.445C393.22 417.064 393.857 416.757 394.648 416.522C395.454 416.273 396.362 416.149 397.373 416.149C397.783 416.149 398.142 416.171 398.45 416.215C398.772 416.259 399.153 416.339 399.592 416.457C400.046 416.559 400.295 416.618 400.339 416.632C400.662 416.559 400.991 416.464 401.328 416.347C401.68 416.229 401.877 416.164 401.921 416.149H402.493C402.844 418.258 403.298 420.053 403.855 421.532C403.679 421.723 403.394 421.818 402.998 421.818C401.782 420.353 400.742 419.284 399.878 418.61C399.028 417.921 398.062 417.577 396.978 417.577C396.128 417.577 395.381 417.768 394.736 418.148C394.092 418.529 393.77 419.108 393.77 419.884C393.77 420.866 394.158 421.635 394.934 422.191C395.725 422.748 397.183 423.458 399.307 424.323C400.288 424.718 401.057 425.048 401.614 425.312C402.185 425.575 402.756 425.89 403.328 426.256C403.899 426.623 404.316 427.003 404.58 427.399C404.858 427.78 405.085 428.241 405.261 428.783C405.437 429.325 405.525 429.955 405.525 430.673C405.525 432.226 404.807 433.632 403.372 434.892C401.951 436.137 400.237 436.759 398.23 436.759Z" fill="#334B2C"/>
</svg>
