<svg width="648" height="460" viewBox="0 0 648 460" fill="none" xmlns="http://www.w3.org/2000/svg">
<path d="M378.043 221.061C379.072 221.061 380.094 221.133 381.109 221.276C382.138 221.406 383.121 221.569 384.059 221.764C385.009 221.946 385.908 222.129 386.754 222.311C387.6 222.493 388.362 222.624 389.039 222.702C388.883 223.17 388.805 223.997 388.805 225.182C388.805 227.487 389.15 229.486 389.84 231.178C389.762 231.413 389.521 231.556 389.117 231.608L388.277 229.811C387.861 228.913 387.359 228.027 386.774 227.155C386.188 226.269 385.484 225.482 384.664 224.792C383.844 224.088 382.887 223.522 381.793 223.092C380.712 222.663 379.462 222.448 378.043 222.448C376.819 222.448 375.732 222.65 374.781 223.053C373.831 223.457 372.998 224.004 372.281 224.694C371.565 225.371 370.96 226.165 370.465 227.077C369.97 227.975 369.567 228.932 369.254 229.948C368.955 230.963 368.733 232.005 368.59 233.073C368.46 234.14 368.395 235.176 368.395 236.178C368.395 237.845 368.609 239.44 369.039 240.963C369.482 242.487 370.165 243.834 371.09 245.006C372.014 246.165 373.186 247.09 374.606 247.78C376.038 248.47 377.744 248.815 379.723 248.815C383.512 248.815 386.376 247.63 388.317 245.26C388.525 245.26 388.694 245.319 388.824 245.436C388.968 245.553 389.039 245.696 389.039 245.866C388.414 246.79 387.652 247.591 386.754 248.268C385.869 248.945 384.925 249.505 383.922 249.948C382.919 250.377 381.904 250.696 380.875 250.905C379.859 251.113 378.915 251.217 378.043 251.217C377.093 251.217 376.064 251.113 374.957 250.905C373.863 250.709 372.763 250.377 371.656 249.909C370.563 249.44 369.508 248.828 368.492 248.073C367.49 247.305 366.598 246.367 365.817 245.26C365.035 244.14 364.41 242.832 363.942 241.334C363.473 239.837 363.238 238.118 363.238 236.178C363.238 234.225 363.473 232.5 363.942 231.002C364.41 229.492 365.035 228.177 365.817 227.057C366.611 225.937 367.516 225 368.531 224.245C369.56 223.476 370.621 222.858 371.715 222.389C372.809 221.907 373.902 221.569 374.996 221.374C376.09 221.165 377.106 221.061 378.043 221.061ZM403.754 232.663C405.043 232.663 406.202 232.89 407.231 233.346C408.272 233.802 409.158 234.433 409.887 235.241C410.616 236.048 411.176 237.018 411.567 238.151C411.957 239.271 412.152 240.495 412.152 241.823C412.152 244.531 411.391 246.732 409.867 248.424C408.357 250.13 406.319 250.983 403.754 250.983C402.478 250.983 401.319 250.762 400.277 250.319C399.249 249.863 398.37 249.232 397.641 248.424C396.912 247.604 396.345 246.634 395.942 245.514C395.551 244.394 395.356 243.164 395.356 241.823C395.356 240.495 395.551 239.271 395.942 238.151C396.332 237.018 396.886 236.048 397.602 235.241C398.331 234.433 399.216 233.802 400.258 233.346C401.3 232.89 402.465 232.663 403.754 232.663ZM403.754 233.932C402.426 233.932 401.365 234.577 400.57 235.866C399.789 237.155 399.399 239.14 399.399 241.823C399.399 244.505 399.789 246.491 400.57 247.78C401.365 249.056 402.426 249.694 403.754 249.694C405.082 249.694 406.137 249.049 406.918 247.76C407.712 246.471 408.109 244.492 408.109 241.823C408.109 240.482 408.005 239.316 407.797 238.327C407.589 237.337 407.296 236.517 406.918 235.866C406.54 235.215 406.085 234.733 405.551 234.42C405.017 234.095 404.418 233.932 403.754 233.932ZM428.391 249.616C428.469 249.772 428.508 249.935 428.508 250.104C428.508 250.234 428.469 250.377 428.391 250.534C426.672 250.456 425.005 250.417 423.391 250.417C421.802 250.417 420.149 250.456 418.43 250.534C418.378 250.325 418.352 250.182 418.352 250.104C418.352 250.039 418.378 249.876 418.43 249.616C418.859 249.564 419.211 249.512 419.484 249.459C419.758 249.394 420.096 249.297 420.5 249.167C420.904 249.036 421.21 248.854 421.418 248.62C421.626 248.372 421.737 248.079 421.75 247.741C421.802 246.452 421.828 244.889 421.828 243.053C421.828 242.441 421.822 241.4 421.809 239.928C421.796 238.457 421.789 237.168 421.789 236.061C421.047 235.605 419.797 235.338 418.039 235.26C417.987 235.052 417.961 234.889 417.961 234.772C417.961 234.694 417.987 234.551 418.039 234.342C420.565 234.082 422.766 233.548 424.641 232.741C424.966 232.871 425.194 233.04 425.324 233.249V236.334C426.587 235.228 427.798 234.342 428.957 233.678C430.116 233.001 431.288 232.663 432.473 232.663C433.957 232.663 435.005 233.079 435.617 233.913C436.242 234.746 436.568 236.048 436.594 237.819L436.789 247.741C436.802 248.079 436.9 248.372 437.082 248.62C437.277 248.854 437.551 249.036 437.902 249.167C438.267 249.297 438.567 249.394 438.801 249.459C439.035 249.512 439.341 249.564 439.719 249.616C439.771 249.876 439.797 250.052 439.797 250.143C439.797 250.247 439.771 250.377 439.719 250.534C438.039 250.456 436.49 250.417 435.07 250.417C433.69 250.417 432.16 250.456 430.481 250.534C430.429 250.325 430.402 250.169 430.402 250.065C430.402 249.974 430.429 249.824 430.481 249.616C430.819 249.564 431.099 249.512 431.32 249.459C431.555 249.394 431.815 249.297 432.102 249.167C432.401 249.036 432.623 248.854 432.766 248.62C432.922 248.372 433 248.079 433 247.741L433.039 238.463C433.039 236.107 432.33 234.928 430.91 234.928C429.582 234.928 427.72 235.814 425.324 237.584C425.324 241.374 425.376 244.759 425.481 247.741C425.494 248.079 425.591 248.372 425.774 248.62C425.969 248.854 426.242 249.036 426.594 249.167C426.945 249.297 427.238 249.394 427.473 249.459C427.707 249.512 428.013 249.564 428.391 249.616ZM451.856 250.983C451.218 250.983 450.638 250.931 450.117 250.827C449.609 250.722 449.212 250.612 448.926 250.495C448.652 250.377 448.281 250.202 447.813 249.967C447.305 249.967 446.556 250.156 445.567 250.534C445.397 250.43 445.28 250.312 445.215 250.182C445.28 249.974 445.358 249.264 445.449 248.053C445.554 246.842 445.606 245.762 445.606 244.811C445.775 244.733 446.081 244.694 446.524 244.694C446.758 245.449 446.999 246.094 447.246 246.627C447.507 247.161 447.832 247.682 448.223 248.19C448.626 248.685 449.108 249.062 449.668 249.323C450.241 249.57 450.892 249.694 451.621 249.694C452.754 249.694 453.639 249.401 454.277 248.815C454.929 248.229 455.254 247.565 455.254 246.823C455.254 246.263 455.163 245.788 454.981 245.397C454.798 245.006 454.388 244.596 453.75 244.167C453.125 243.724 452.227 243.288 451.055 242.858C450.326 242.597 449.707 242.357 449.199 242.135C448.692 241.914 448.164 241.64 447.617 241.315C447.083 240.989 446.654 240.657 446.328 240.319C446.003 239.967 445.736 239.551 445.527 239.069C445.319 238.587 445.215 238.06 445.215 237.487C445.215 237.07 445.261 236.66 445.352 236.256C445.456 235.84 445.645 235.41 445.918 234.967C446.205 234.525 446.556 234.14 446.973 233.815C447.402 233.476 447.969 233.203 448.672 232.995C449.388 232.773 450.195 232.663 451.094 232.663C451.458 232.663 451.777 232.682 452.051 232.721C452.337 232.76 452.676 232.832 453.067 232.936C453.47 233.027 453.692 233.079 453.731 233.092C454.017 233.027 454.31 232.943 454.609 232.838C454.922 232.734 455.098 232.676 455.137 232.663H455.645C455.957 234.538 456.361 236.133 456.856 237.448C456.699 237.617 456.445 237.702 456.094 237.702C455.013 236.4 454.089 235.449 453.32 234.85C452.565 234.238 451.706 233.932 450.742 233.932C449.987 233.932 449.323 234.101 448.75 234.44C448.177 234.778 447.891 235.293 447.891 235.983C447.891 236.855 448.236 237.539 448.926 238.034C449.629 238.528 450.925 239.16 452.813 239.928C453.685 240.28 454.369 240.573 454.863 240.807C455.371 241.042 455.879 241.321 456.387 241.647C456.895 241.972 457.266 242.311 457.5 242.663C457.748 243.001 457.949 243.411 458.106 243.893C458.262 244.375 458.34 244.935 458.34 245.573C458.34 246.953 457.702 248.203 456.426 249.323C455.163 250.43 453.639 250.983 451.856 250.983ZM469.383 229.342C469.513 229.29 469.663 229.264 469.832 229.264C470.001 229.264 470.177 229.29 470.359 229.342V233.62H476.277C476.356 233.815 476.395 234.056 476.395 234.342C476.395 234.59 476.356 234.818 476.277 235.026H470.359V245.456C470.359 247.513 471.304 248.542 473.192 248.542C473.908 248.542 474.52 248.405 475.027 248.131C475.548 247.858 476.121 247.448 476.746 246.901C477.072 246.94 477.287 247.096 477.391 247.37C476.818 248.398 475.971 249.258 474.852 249.948C473.732 250.638 472.501 250.983 471.16 250.983C468.009 250.983 466.434 249.075 466.434 245.26V235.026H464.031C463.979 234.792 463.953 234.642 463.953 234.577C463.953 234.564 463.979 234.414 464.031 234.127C464.656 233.815 465.132 233.561 465.457 233.366C465.796 233.157 466.219 232.864 466.727 232.487C467.248 232.109 467.716 231.667 468.133 231.159C468.563 230.638 468.979 230.032 469.383 229.342ZM481.5 234.342C484.026 234.082 486.227 233.548 488.102 232.741C488.427 232.871 488.655 233.04 488.785 233.249V236.608C489.267 235.696 489.983 234.811 490.934 233.952C491.897 233.092 492.9 232.663 493.942 232.663C494.723 232.663 495.354 232.897 495.836 233.366C496.331 233.821 496.578 234.453 496.578 235.26C496.578 236.028 496.35 236.627 495.895 237.057C495.439 237.487 494.866 237.702 494.176 237.702C493.538 237.702 493.011 237.5 492.594 237.096C492.19 236.68 491.969 236.133 491.93 235.456C491.383 235.69 490.758 236.211 490.055 237.018C489.365 237.825 488.942 238.626 488.785 239.42C488.785 242.324 488.837 245.097 488.942 247.741C488.955 248.079 489.078 248.372 489.313 248.62C489.547 248.854 489.892 249.036 490.348 249.167C490.804 249.297 491.181 249.394 491.481 249.459C491.78 249.512 492.171 249.564 492.652 249.616C492.731 249.772 492.77 249.935 492.77 250.104C492.77 250.234 492.731 250.377 492.652 250.534C490.699 250.456 488.766 250.417 486.852 250.417C485.263 250.417 483.609 250.456 481.891 250.534C481.839 250.325 481.813 250.182 481.813 250.104C481.813 250.039 481.839 249.876 481.891 249.616C482.32 249.564 482.672 249.512 482.945 249.459C483.219 249.394 483.557 249.297 483.961 249.167C484.365 249.036 484.671 248.854 484.879 248.62C485.087 248.372 485.198 248.079 485.211 247.741C485.263 246.452 485.289 244.889 485.289 243.053C485.289 242.441 485.283 241.4 485.27 239.928C485.257 238.457 485.25 237.168 485.25 236.061C484.508 235.605 483.258 235.338 481.5 235.26C481.448 235.052 481.422 234.889 481.422 234.772C481.422 234.694 481.448 234.551 481.5 234.342ZM500.746 233.092C501.215 233.118 501.684 233.144 502.152 233.17C502.621 233.196 502.992 233.216 503.266 233.229C503.539 233.242 503.793 233.249 504.027 233.249C504.223 233.249 504.451 233.242 504.711 233.229C504.971 233.216 505.323 233.196 505.766 233.17C506.221 233.144 506.658 233.118 507.074 233.092C507.309 233.17 507.498 233.372 507.641 233.698C507.628 233.802 507.602 233.958 507.563 234.167C507.537 234.362 507.511 234.603 507.484 234.889C507.471 235.163 507.465 235.501 507.465 235.905L507.426 245.182C507.426 247.526 508.136 248.698 509.555 248.698C510.87 248.698 512.738 247.832 515.16 246.1C515.16 242.22 515.102 238.821 514.984 235.905C514.984 235.67 514.939 235.462 514.848 235.28C514.757 235.097 514.613 234.941 514.418 234.811C514.236 234.681 514.067 234.577 513.91 234.499C513.767 234.407 513.552 234.329 513.266 234.264C512.979 234.186 512.777 234.14 512.66 234.127C512.543 234.101 512.348 234.062 512.074 234.01C512.022 233.802 511.996 233.646 511.996 233.542C511.996 233.45 512.022 233.301 512.074 233.092C512.53 233.118 512.992 233.144 513.461 233.17C513.943 233.196 514.32 233.216 514.594 233.229C514.867 233.242 515.121 233.249 515.356 233.249C515.551 233.249 515.779 233.242 516.039 233.229C516.3 233.216 516.651 233.196 517.094 233.17C517.55 233.144 517.986 233.118 518.402 233.092C518.468 233.131 518.52 233.17 518.559 233.209C518.611 233.236 518.65 233.275 518.676 233.327C518.715 233.366 518.741 233.398 518.754 233.424C518.767 233.437 518.787 233.483 518.813 233.561C518.839 233.626 518.858 233.672 518.871 233.698C518.767 234.401 518.715 235.137 518.715 235.905C518.637 237.819 518.598 239.375 518.598 240.573C518.598 241.198 518.611 242.246 518.637 243.717C518.663 245.189 518.676 246.478 518.676 247.584C519.418 248.014 520.668 248.281 522.426 248.385C522.491 248.711 522.524 248.88 522.524 248.893C522.524 248.971 522.491 249.108 522.426 249.303C519.965 249.538 517.764 250.071 515.824 250.905C515.486 250.762 515.264 250.586 515.16 250.377V247.331C513.858 248.45 512.628 249.342 511.469 250.006C510.323 250.657 509.164 250.983 507.992 250.983C506.508 250.983 505.453 250.566 504.828 249.733C504.216 248.9 503.897 247.591 503.871 245.807L503.715 235.905C503.689 235.605 503.63 235.384 503.539 235.241C503.461 235.084 503.324 234.941 503.129 234.811C502.947 234.681 502.777 234.577 502.621 234.499C502.465 234.407 502.244 234.329 501.957 234.264C501.671 234.186 501.469 234.14 501.352 234.127C501.234 234.101 501.033 234.062 500.746 234.01C500.694 233.802 500.668 233.646 500.668 233.542C500.668 233.45 500.694 233.301 500.746 233.092ZM543.176 245.338C543.488 245.403 543.742 245.547 543.938 245.768C543.287 247.513 542.277 248.821 540.91 249.694C539.543 250.553 538.059 250.983 536.457 250.983C535.663 250.983 534.888 250.879 534.133 250.67C533.378 250.475 532.642 250.15 531.926 249.694C531.223 249.238 530.604 248.678 530.07 248.014C529.55 247.337 529.126 246.497 528.801 245.495C528.488 244.479 528.332 243.359 528.332 242.135C528.332 239.31 529.198 237.025 530.93 235.28C532.662 233.535 534.823 232.663 537.414 232.663C539.237 232.663 540.721 233.06 541.867 233.854C543.026 234.635 543.606 235.638 543.606 236.862C543.606 237.552 543.378 238.125 542.922 238.581C542.466 239.036 541.906 239.264 541.242 239.264C540.539 239.264 539.973 239.062 539.543 238.659C539.113 238.242 538.899 237.76 538.899 237.213C538.899 236.224 539.4 235.599 540.402 235.338C540.311 235.039 540.018 234.733 539.524 234.42C539.029 234.095 538.326 233.932 537.414 233.932C536.945 233.932 536.503 233.991 536.086 234.108C535.669 234.212 535.22 234.44 534.738 234.792C534.27 235.143 533.866 235.605 533.527 236.178C533.202 236.751 532.929 237.552 532.707 238.581C532.486 239.596 532.375 240.781 532.375 242.135C532.375 243.047 532.466 243.874 532.649 244.616C532.844 245.358 533.143 246.028 533.547 246.627C533.951 247.226 534.504 247.695 535.207 248.034C535.91 248.372 536.737 248.542 537.688 248.542C538.287 248.542 538.853 248.463 539.387 248.307C539.921 248.138 540.35 247.962 540.676 247.78C541.014 247.597 541.373 247.324 541.75 246.959C542.141 246.582 542.401 246.315 542.531 246.159C542.662 245.989 542.876 245.716 543.176 245.338ZM554.18 229.342C554.31 229.29 554.46 229.264 554.629 229.264C554.798 229.264 554.974 229.29 555.156 229.342V233.62H561.074C561.152 233.815 561.192 234.056 561.192 234.342C561.192 234.59 561.152 234.818 561.074 235.026H555.156V245.456C555.156 247.513 556.1 248.542 557.988 248.542C558.705 248.542 559.317 248.405 559.824 248.131C560.345 247.858 560.918 247.448 561.543 246.901C561.869 246.94 562.083 247.096 562.188 247.37C561.615 248.398 560.768 249.258 559.649 249.948C558.529 250.638 557.298 250.983 555.957 250.983C552.806 250.983 551.231 249.075 551.231 245.26V235.026H548.828C548.776 234.792 548.75 234.642 548.75 234.577C548.75 234.564 548.776 234.414 548.828 234.127C549.453 233.815 549.929 233.561 550.254 233.366C550.593 233.157 551.016 232.864 551.524 232.487C552.044 232.109 552.513 231.667 552.93 231.159C553.359 230.638 553.776 230.032 554.18 229.342ZM566.297 234.342C568.823 234.082 571.024 233.548 572.899 232.741C573.224 232.871 573.452 233.04 573.582 233.249C573.582 240.006 573.634 244.837 573.738 247.741C573.751 248.079 573.849 248.372 574.031 248.62C574.227 248.854 574.5 249.036 574.852 249.167C575.203 249.297 575.496 249.394 575.731 249.459C575.965 249.512 576.271 249.564 576.649 249.616C576.727 249.772 576.766 249.935 576.766 250.104C576.766 250.273 576.727 250.417 576.649 250.534C574.93 250.456 573.263 250.417 571.649 250.417C570.06 250.417 568.406 250.456 566.688 250.534C566.636 250.325 566.609 250.182 566.609 250.104C566.609 250.039 566.636 249.876 566.688 249.616C567.117 249.564 567.469 249.512 567.742 249.459C568.016 249.394 568.354 249.297 568.758 249.167C569.162 249.036 569.468 248.854 569.676 248.62C569.884 248.372 569.995 248.079 570.008 247.741C570.06 246.452 570.086 244.889 570.086 243.053C570.086 242.441 570.08 241.4 570.067 239.928C570.054 238.457 570.047 237.168 570.047 236.061C569.305 235.605 568.055 235.338 566.297 235.26C566.245 235.052 566.219 234.889 566.219 234.772C566.219 234.694 566.245 234.551 566.297 234.342ZM569.363 226.178C569.363 225.514 569.598 224.948 570.067 224.479C570.548 224.01 571.115 223.776 571.766 223.776C572.43 223.776 572.996 224.01 573.465 224.479C573.934 224.948 574.168 225.514 574.168 226.178C574.168 226.829 573.934 227.396 573.465 227.877C572.996 228.346 572.43 228.581 571.766 228.581C571.115 228.581 570.548 228.346 570.067 227.877C569.598 227.396 569.363 226.829 569.363 226.178ZM590.777 232.663C592.067 232.663 593.225 232.89 594.254 233.346C595.296 233.802 596.181 234.433 596.91 235.241C597.639 236.048 598.199 237.018 598.59 238.151C598.981 239.271 599.176 240.495 599.176 241.823C599.176 244.531 598.414 246.732 596.891 248.424C595.38 250.13 593.343 250.983 590.777 250.983C589.501 250.983 588.343 250.762 587.301 250.319C586.272 249.863 585.393 249.232 584.664 248.424C583.935 247.604 583.369 246.634 582.965 245.514C582.574 244.394 582.379 243.164 582.379 241.823C582.379 240.495 582.574 239.271 582.965 238.151C583.356 237.018 583.909 236.048 584.625 235.241C585.354 234.433 586.24 233.802 587.281 233.346C588.323 232.89 589.488 232.663 590.777 232.663ZM590.777 233.932C589.449 233.932 588.388 234.577 587.594 235.866C586.813 237.155 586.422 239.14 586.422 241.823C586.422 244.505 586.813 246.491 587.594 247.78C588.388 249.056 589.449 249.694 590.777 249.694C592.106 249.694 593.16 249.049 593.942 247.76C594.736 246.471 595.133 244.492 595.133 241.823C595.133 240.482 595.029 239.316 594.82 238.327C594.612 237.337 594.319 236.517 593.942 235.866C593.564 235.215 593.108 234.733 592.574 234.42C592.04 234.095 591.442 233.932 590.777 233.932ZM615.414 249.616C615.492 249.772 615.531 249.935 615.531 250.104C615.531 250.234 615.492 250.377 615.414 250.534C613.695 250.456 612.029 250.417 610.414 250.417C608.826 250.417 607.172 250.456 605.453 250.534C605.401 250.325 605.375 250.182 605.375 250.104C605.375 250.039 605.401 249.876 605.453 249.616C605.883 249.564 606.234 249.512 606.508 249.459C606.781 249.394 607.12 249.297 607.524 249.167C607.927 249.036 608.233 248.854 608.442 248.62C608.65 248.372 608.761 248.079 608.774 247.741C608.826 246.452 608.852 244.889 608.852 243.053C608.852 242.441 608.845 241.4 608.832 239.928C608.819 238.457 608.813 237.168 608.813 236.061C608.07 235.605 606.82 235.338 605.063 235.26C605.011 235.052 604.984 234.889 604.984 234.772C604.984 234.694 605.011 234.551 605.063 234.342C607.589 234.082 609.789 233.548 611.664 232.741C611.99 232.871 612.218 233.04 612.348 233.249V236.334C613.611 235.228 614.822 234.342 615.981 233.678C617.139 233.001 618.311 232.663 619.496 232.663C620.981 232.663 622.029 233.079 622.641 233.913C623.266 234.746 623.591 236.048 623.617 237.819L623.813 247.741C623.826 248.079 623.923 248.372 624.106 248.62C624.301 248.854 624.574 249.036 624.926 249.167C625.29 249.297 625.59 249.394 625.824 249.459C626.059 249.512 626.365 249.564 626.742 249.616C626.794 249.876 626.82 250.052 626.82 250.143C626.82 250.247 626.794 250.377 626.742 250.534C625.063 250.456 623.513 250.417 622.094 250.417C620.714 250.417 619.184 250.456 617.504 250.534C617.452 250.325 617.426 250.169 617.426 250.065C617.426 249.974 617.452 249.824 617.504 249.616C617.843 249.564 618.123 249.512 618.344 249.459C618.578 249.394 618.839 249.297 619.125 249.167C619.425 249.036 619.646 248.854 619.789 248.62C619.945 248.372 620.024 248.079 620.024 247.741L620.063 238.463C620.063 236.107 619.353 234.928 617.934 234.928C616.606 234.928 614.744 235.814 612.348 237.584C612.348 241.374 612.4 244.759 612.504 247.741C612.517 248.079 612.615 248.372 612.797 248.62C612.992 248.854 613.266 249.036 613.617 249.167C613.969 249.297 614.262 249.394 614.496 249.459C614.731 249.512 615.037 249.564 615.414 249.616ZM638.879 250.983C638.241 250.983 637.662 250.931 637.141 250.827C636.633 250.722 636.236 250.612 635.949 250.495C635.676 250.377 635.305 250.202 634.836 249.967C634.328 249.967 633.58 250.156 632.59 250.534C632.421 250.43 632.304 250.312 632.238 250.182C632.304 249.974 632.382 249.264 632.473 248.053C632.577 246.842 632.629 245.762 632.629 244.811C632.798 244.733 633.104 244.694 633.547 244.694C633.781 245.449 634.022 246.094 634.27 246.627C634.53 247.161 634.856 247.682 635.246 248.19C635.65 248.685 636.132 249.062 636.692 249.323C637.264 249.57 637.915 249.694 638.645 249.694C639.777 249.694 640.663 249.401 641.301 248.815C641.952 248.229 642.277 247.565 642.277 246.823C642.277 246.263 642.186 245.788 642.004 245.397C641.822 245.006 641.412 244.596 640.774 244.167C640.149 243.724 639.25 243.288 638.078 242.858C637.349 242.597 636.731 242.357 636.223 242.135C635.715 241.914 635.188 241.64 634.641 241.315C634.107 240.989 633.677 240.657 633.352 240.319C633.026 239.967 632.759 239.551 632.551 239.069C632.343 238.587 632.238 238.06 632.238 237.487C632.238 237.07 632.284 236.66 632.375 236.256C632.479 235.84 632.668 235.41 632.942 234.967C633.228 234.525 633.58 234.14 633.996 233.815C634.426 233.476 634.992 233.203 635.695 232.995C636.412 232.773 637.219 232.663 638.117 232.663C638.482 232.663 638.801 232.682 639.074 232.721C639.361 232.76 639.699 232.832 640.09 232.936C640.494 233.027 640.715 233.079 640.754 233.092C641.04 233.027 641.333 232.943 641.633 232.838C641.945 232.734 642.121 232.676 642.16 232.663H642.668C642.981 234.538 643.384 236.133 643.879 237.448C643.723 237.617 643.469 237.702 643.117 237.702C642.037 236.4 641.112 235.449 640.344 234.85C639.589 234.238 638.729 233.932 637.766 233.932C637.011 233.932 636.346 234.101 635.774 234.44C635.201 234.778 634.914 235.293 634.914 235.983C634.914 236.855 635.259 237.539 635.949 238.034C636.652 238.528 637.948 239.16 639.836 239.928C640.708 240.28 641.392 240.573 641.887 240.807C642.395 241.042 642.902 241.321 643.41 241.647C643.918 241.972 644.289 242.311 644.524 242.663C644.771 243.001 644.973 243.411 645.129 243.893C645.285 244.375 645.363 244.935 645.363 245.573C645.363 246.953 644.725 248.203 643.449 249.323C642.186 250.43 640.663 250.983 638.879 250.983Z" fill="white"/>
<path d="M110.379 128.305C122.41 128.734 134.943 128.949 147.977 128.949H160.33C165.558 128.878 174.581 128.842 187.4 128.842C200.291 128.77 211.284 128.699 220.379 128.627C229.546 128.555 238.641 128.376 247.664 128.09C248.237 133.031 249.454 138.188 251.316 143.559C253.178 148.858 254.969 153.227 256.688 156.664C258.406 160.03 260.662 164.112 263.455 168.91C262.882 170.128 261.629 171.094 259.695 171.811C257.117 166.941 254.002 162.608 250.35 158.812C246.697 155.017 242.078 151.436 236.492 148.07C230.978 144.704 224.067 141.947 215.76 139.799C207.524 137.65 198.143 136.218 187.615 135.502H160.33C159.399 166.439 158.934 189.822 158.934 205.648H189.549C191.339 205.648 193.022 205.505 194.598 205.219C196.173 204.861 197.641 204.288 199.002 203.5C200.434 202.712 201.652 201.96 202.654 201.244C203.729 200.456 204.839 199.311 205.984 197.807C207.202 196.231 208.169 194.942 208.885 193.939C209.601 192.937 210.496 191.361 211.57 189.213C212.645 186.993 213.468 185.31 214.041 184.164C214.614 183.018 215.473 181.12 216.619 178.471C217.837 175.821 218.732 173.887 219.305 172.67C221.811 173.744 223.172 174.639 223.387 175.355C219.161 186.384 217.049 197.592 217.049 208.979C217.049 220.294 219.161 231.537 223.387 242.709C222.885 243.712 221.525 244.643 219.305 245.502C214.936 234.975 211.606 227.921 209.314 224.34C204.015 216.391 197.426 212.38 189.549 212.309H158.934C158.934 227.706 159.327 247.364 160.115 271.283C160.187 273.145 161.01 274.757 162.586 276.117C164.161 277.406 166.417 278.409 169.354 279.125C172.361 279.841 174.868 280.378 176.873 280.736C178.95 281.023 181.635 281.309 184.93 281.596C185.216 283.028 185.359 283.995 185.359 284.496C185.359 285.069 185.216 285.785 184.93 286.645C172.755 286.215 160.294 286 147.547 286C134.656 286 122.195 286.215 110.164 286.645C109.878 285.785 109.734 285.069 109.734 284.496C109.734 283.995 109.878 283.028 110.164 281.596C112.312 281.381 114.031 281.202 115.32 281.059C116.609 280.915 118.364 280.665 120.584 280.307C122.876 279.949 124.702 279.555 126.062 279.125C127.495 278.624 128.963 278.015 130.467 277.299C131.971 276.583 133.081 275.723 133.797 274.721C134.585 273.718 134.979 272.572 134.979 271.283C135.838 248.868 136.268 226.273 136.268 203.5C136.268 180.297 135.91 160.281 135.193 143.451C135.122 141.589 134.298 140.014 132.723 138.725C131.219 137.436 128.927 136.433 125.848 135.717C122.768 135.001 120.298 134.535 118.436 134.32C116.574 134.034 113.888 133.712 110.379 133.354C110.092 132.064 109.949 131.169 109.949 130.668C109.949 130.238 110.092 129.451 110.379 128.305ZM279.354 128.09C295.538 128.663 308.25 128.949 317.488 128.949C326.225 128.949 338.686 128.663 354.871 128.09C355.158 129.236 355.301 130.023 355.301 130.453C355.301 131.241 355.158 132.136 354.871 133.139C351.577 133.425 348.891 133.747 346.814 134.105C344.738 134.392 342.195 134.893 339.188 135.609C336.18 136.326 333.888 137.364 332.312 138.725C330.737 140.014 329.949 141.589 329.949 143.451C329.878 148.106 329.77 159.027 329.627 176.215C329.555 193.402 329.448 209.48 329.305 224.447C329.161 236.407 328.947 246.218 328.66 253.881C328.445 261.472 327.944 269.923 327.156 279.232C326.44 288.471 325.402 295.883 324.041 301.469C322.752 307.126 320.962 312.891 318.67 318.764C316.378 324.708 313.585 329.255 310.291 332.406C307.068 335.557 303.094 338.135 298.367 340.141C293.641 342.146 288.198 343.148 282.039 343.148C271.655 343.148 263.598 340.606 257.869 335.521C252.14 330.437 249.275 324.421 249.275 317.475C249.275 311.531 250.851 306.911 254.002 303.617C257.153 300.395 261.307 298.783 266.463 298.783C270.688 298.783 274.305 299.929 277.312 302.221C280.32 304.512 281.824 307.914 281.824 312.426C281.824 314.861 281.215 317.009 279.998 318.871C278.781 320.805 277.42 322.201 275.916 323.061C274.484 323.992 273.159 324.815 271.941 325.531C270.724 326.319 270.115 326.856 270.115 327.143C270.115 329.864 271.154 332.084 273.23 333.803C275.379 335.521 278.315 336.381 282.039 336.381C286.049 336.381 289.415 335.629 292.137 334.125C294.93 332.621 297.186 330.508 298.904 327.787C300.695 325.066 302.055 321.27 302.986 316.4C303.917 311.531 304.526 306.339 304.812 300.824C305.171 295.31 305.35 288.399 305.35 280.092C305.35 209.337 304.992 163.79 304.275 143.451C304.204 141.589 303.38 140.014 301.805 138.725C300.229 137.364 297.938 136.326 294.93 135.609C291.922 134.893 289.38 134.392 287.303 134.105C285.298 133.747 282.648 133.425 279.354 133.139C279.067 131.85 278.924 130.954 278.924 130.453C278.924 129.737 279.067 128.949 279.354 128.09Z" fill="white"/>
<path d="M235.411 23.6279C349.039 23.628 441.157 115.96 441.157 229.863C441.157 343.766 349.039 436.099 235.411 436.099C121.783 436.099 29.6648 343.766 29.6648 229.863C29.6648 115.96 121.783 23.6279 235.411 23.6279Z" stroke="white" stroke-width="2"/>
<path d="M236.15 437.495V459" stroke="white" stroke-width="2" stroke-linecap="round"/>
<path d="M28.8757 229.078H0.999887" stroke="white" stroke-width="2" stroke-linecap="round"/>
<path d="M236.15 1V22.5056" stroke="white" stroke-width="2" stroke-linecap="round"/>
</svg>
