<svg width="256" height="250" viewBox="0 0 256 250" fill="none" xmlns="http://www.w3.org/2000/svg">
<ellipse cx="128" cy="125" rx="128" ry="125" fill="#334B2C"/>
<g clip-path="url(#clip0_2130_2739)">
<path d="M127.457 216.943V224.286" stroke="white" stroke-width="2" stroke-linecap="round"/>
<path d="M127.457 25.3638V32.7065" stroke="white" stroke-width="2" stroke-linecap="round"/>
<path d="M209.308 124.825H217.358" stroke="white" stroke-width="2" stroke-linecap="round"/>
<path d="M38.3623 124.825H45.7422" stroke="white" stroke-width="2" stroke-linecap="round"/>
<path d="M75.4576 72.5474C80.6074 72.7322 85.9715 72.8245 91.55 72.8245H96.8378C99.0753 72.7936 102.937 72.7783 108.424 72.7783C113.942 72.7474 118.647 72.7165 122.54 72.686C126.464 72.6551 130.357 72.5784 134.219 72.4551C134.464 74.5787 134.985 76.7947 135.782 79.1027C136.579 81.3802 137.345 83.2576 138.081 84.7351C138.817 86.1813 139.782 87.9358 140.978 89.9976C140.732 90.5209 140.196 90.9365 139.368 91.2442C138.265 89.1514 136.931 87.2893 135.368 85.6583C133.805 84.0271 131.828 82.4882 129.437 81.0416C127.077 79.5951 124.119 78.4103 120.563 77.4871C117.038 76.5638 113.023 75.9482 108.516 75.6405H96.8378C96.4394 88.9358 96.2402 98.9845 96.2402 105.786H109.344C110.11 105.786 110.831 105.725 111.505 105.601C112.179 105.447 112.808 105.201 113.39 104.863C114.003 104.524 114.524 104.201 114.954 103.893C115.413 103.555 115.888 103.062 116.379 102.416C116.9 101.739 117.314 101.185 117.62 100.754C117.927 100.323 118.31 99.646 118.77 98.7227C119.229 97.7689 119.582 97.0456 119.827 96.5533C120.073 96.0605 120.44 95.2453 120.931 94.1063C121.452 92.9674 121.835 92.1365 122.08 91.6136C123.153 92.0751 123.736 92.4598 123.828 92.7674C122.019 97.5071 121.115 102.324 121.115 107.217C121.115 112.08 122.019 116.912 123.828 121.713C123.613 122.144 123.03 122.544 122.08 122.913C120.211 118.389 118.785 115.358 117.804 113.819C115.536 110.402 112.716 108.679 109.344 108.648H96.2402C96.2402 115.265 96.4086 123.713 96.7458 133.993C96.7766 134.793 97.129 135.485 97.8033 136.07C98.4777 136.624 99.4432 137.055 100.7 137.363C101.988 137.67 103.06 137.901 103.919 138.055C104.807 138.178 105.957 138.301 107.367 138.425C107.49 139.04 107.551 139.455 107.551 139.671C107.551 139.917 107.49 140.225 107.367 140.594C102.156 140.41 96.8226 140.317 91.3664 140.317C85.8487 140.317 80.5154 140.41 75.3656 140.594C75.2428 140.225 75.1816 139.917 75.1816 139.671C75.1816 139.455 75.2428 139.04 75.3656 138.425C76.2852 138.332 77.0208 138.255 77.5727 138.194C78.1243 138.132 78.8754 138.025 79.8254 137.871C80.8065 137.717 81.5881 137.547 82.1705 137.363C82.7837 137.147 83.412 136.886 84.0556 136.578C84.6992 136.27 85.1744 135.901 85.4811 135.47C85.8183 135.039 85.9867 134.547 85.9867 133.993C86.3547 124.36 86.5387 114.65 86.5387 104.863C86.5387 94.8911 86.3851 86.2893 86.0787 79.0565C86.0479 78.2565 85.6955 77.5794 85.0212 77.0253C84.3776 76.4714 83.3964 76.0405 82.0785 75.7329C80.7606 75.4249 79.703 75.2249 78.9059 75.1325C78.1091 75.0096 76.9595 74.8711 75.4576 74.7173C75.3348 74.1631 75.2736 73.7783 75.2736 73.5631C75.2736 73.3783 75.3348 73.0398 75.4576 72.5474ZM147.782 72.4551C154.71 72.7013 160.151 72.8245 164.105 72.8245C167.845 72.8245 173.178 72.7013 180.106 72.4551C180.228 72.9474 180.29 73.286 180.29 73.4707C180.29 73.8093 180.228 74.194 180.106 74.6249C178.696 74.7478 177.546 74.8863 176.657 75.0402C175.768 75.1634 174.68 75.3787 173.393 75.6867C172.105 75.9943 171.125 76.4405 170.45 77.0253C169.776 77.5794 169.439 78.2565 169.439 79.0565C169.408 81.0573 169.362 85.7504 169.301 93.1369C169.27 100.523 169.224 107.433 169.163 113.865C169.101 119.005 169.009 123.221 168.887 126.514C168.795 129.776 168.58 133.408 168.243 137.409C167.937 141.379 167.492 144.565 166.91 146.965C166.358 149.397 165.592 151.874 164.611 154.398C163.63 156.952 162.435 158.906 161.025 160.261C159.645 161.615 157.944 162.723 155.921 163.584C153.898 164.446 151.568 164.877 148.932 164.877C144.487 164.877 141.039 163.785 138.587 161.599C136.135 159.414 134.908 156.829 134.908 153.843C134.908 151.289 135.583 149.304 136.931 147.888C138.28 146.503 140.058 145.811 142.265 145.811C144.073 145.811 145.621 146.303 146.909 147.288C148.196 148.273 148.84 149.735 148.84 151.674C148.84 152.72 148.58 153.643 148.058 154.444C147.537 155.275 146.955 155.875 146.311 156.244C145.698 156.644 145.131 156.998 144.61 157.306C144.089 157.645 143.828 157.875 143.828 157.998C143.828 159.168 144.273 160.122 145.162 160.861C146.081 161.599 147.338 161.969 148.932 161.969C150.649 161.969 152.089 161.645 153.254 160.999C154.449 160.353 155.415 159.445 156.151 158.275C156.917 157.106 157.5 155.475 157.898 153.382C158.296 151.289 158.557 149.058 158.68 146.688C158.833 144.318 158.91 141.348 158.91 137.778C158.91 107.371 158.756 87.7973 158.45 79.0565C158.419 78.2565 158.066 77.5794 157.392 77.0253C156.718 76.4405 155.737 75.9943 154.449 75.6867C153.162 75.3787 152.074 75.1634 151.185 75.0402C150.327 74.8863 149.192 74.7478 147.782 74.6249C147.66 74.0707 147.599 73.686 147.599 73.4707C147.599 73.1631 147.66 72.8245 147.782 72.4551Z" fill="white"/>
<path d="M209.304 124.825C209.304 175.701 172.659 216.944 127.455 216.944C82.2505 216.944 45.6055 175.701 45.6055 124.825C45.6055 73.9493 82.2505 32.7065 127.455 32.7065C172.659 32.7065 209.304 73.9493 209.304 124.825Z" stroke="white" stroke-width="2"/>
<path d="M75.9522 171.581C76.3712 171.581 76.7877 171.61 77.2013 171.669C77.6203 171.722 78.0209 171.788 78.403 171.868C78.7902 171.943 79.1563 172.017 79.5011 172.092C79.8463 172.166 80.1563 172.22 80.4322 172.252C80.3685 172.443 80.3366 172.782 80.3366 173.266C80.3366 174.209 80.4775 175.027 80.7586 175.719C80.7267 175.815 80.6285 175.874 80.4641 175.895L80.1219 175.16C79.952 174.793 79.7481 174.43 79.5091 174.074C79.2704 173.711 78.9839 173.389 78.6496 173.107C78.3153 172.819 77.9256 172.587 77.4798 172.411C77.0394 172.236 76.5302 172.148 75.9522 172.148C75.4535 172.148 75.0102 172.23 74.623 172.395C74.2358 172.561 73.8962 172.785 73.6044 173.067C73.3127 173.344 73.0659 173.669 72.8644 174.042C72.6627 174.409 72.4983 174.801 72.371 175.216C72.2489 175.631 72.1587 176.058 72.1004 176.494C72.0473 176.931 72.0208 177.355 72.0208 177.765C72.0208 178.447 72.1084 179.099 72.2834 179.722C72.4638 180.346 72.7423 180.897 73.119 181.377C73.4957 181.85 73.9731 182.229 74.5513 182.511C75.1351 182.793 75.8301 182.934 76.6363 182.934C78.1803 182.934 79.3475 182.45 80.1378 181.48C80.2229 181.48 80.2917 181.504 80.3446 181.552C80.4033 181.6 80.4322 181.659 80.4322 181.728C80.1776 182.106 79.8673 182.434 79.5011 182.711C79.1404 182.988 78.7557 183.217 78.3472 183.398C77.9387 183.574 77.5251 183.704 77.106 183.789C76.6921 183.875 76.3075 183.917 75.9522 183.917C75.5646 183.917 75.1456 183.875 74.6947 183.789C74.2489 183.71 73.8007 183.574 73.3498 183.382C72.9041 183.19 72.4744 182.94 72.0606 182.631C71.6521 182.317 71.2887 181.933 70.9704 181.48C70.6521 181.022 70.3974 180.487 70.2064 179.874C70.0154 179.262 69.9199 178.559 69.9199 177.765C69.9199 176.966 70.0154 176.26 70.2064 175.647C70.3974 175.03 70.6521 174.492 70.9704 174.034C71.294 173.575 71.6627 173.192 72.0765 172.883C72.4956 172.569 72.928 172.316 73.3736 172.124C73.8193 171.927 74.2648 171.788 74.7106 171.709C75.1561 171.623 75.5701 171.581 75.9522 171.581ZM86.4277 176.327C86.9532 176.327 87.4251 176.42 87.8441 176.606C88.2686 176.793 88.6293 177.051 88.9267 177.381C89.2236 177.712 89.4518 178.109 89.6108 178.572C89.7702 179.03 89.8498 179.531 89.8498 180.074C89.8498 181.182 89.5394 182.082 88.9187 182.775C88.3034 183.473 87.4729 183.821 86.4277 183.821C85.9079 183.821 85.4357 183.731 85.0112 183.55C84.5922 183.363 84.234 183.105 83.937 182.775C83.64 182.439 83.4089 182.042 83.2445 181.584C83.0855 181.126 83.0058 180.623 83.0058 180.074C83.0058 179.531 83.0855 179.03 83.2445 178.572C83.4039 178.109 83.6291 177.712 83.9211 177.381C84.218 177.051 84.5788 176.793 85.0032 176.606C85.4277 176.42 85.9025 176.327 86.4277 176.327ZM86.4277 176.846C85.8866 176.846 85.4541 177.11 85.1307 177.637C84.8124 178.165 84.653 178.977 84.653 180.074C84.653 181.171 84.8124 181.984 85.1307 182.511C85.4541 183.033 85.8866 183.294 86.4277 183.294C86.9687 183.294 87.3986 183.03 87.717 182.503C88.0404 181.976 88.2023 181.166 88.2023 180.074C88.2023 179.525 88.1599 179.049 88.0752 178.644C87.9901 178.239 87.8709 177.903 87.717 177.637C87.5631 177.371 87.3773 177.174 87.16 177.046C86.9423 176.913 86.6982 176.846 86.4277 176.846ZM96.466 183.262C96.4979 183.326 96.5135 183.393 96.5135 183.462C96.5135 183.515 96.4979 183.574 96.466 183.638C95.7656 183.606 95.0865 183.59 94.4288 183.59C93.7816 183.59 93.1076 183.606 92.4075 183.638C92.3861 183.553 92.3756 183.494 92.3756 183.462C92.3756 183.435 92.3861 183.369 92.4075 183.262C92.5824 183.241 92.7258 183.219 92.837 183.198C92.9486 183.171 93.0866 183.131 93.251 183.078C93.4154 183.025 93.54 182.95 93.6248 182.855C93.7099 182.753 93.7548 182.634 93.7602 182.495C93.7816 181.968 93.7921 181.329 93.7921 180.577C93.7921 180.327 93.7896 179.901 93.7841 179.299C93.7787 178.697 93.7761 178.17 93.7761 177.717C93.4737 177.53 92.9645 177.421 92.2481 177.389C92.2271 177.304 92.2163 177.238 92.2163 177.19C92.2163 177.158 92.2271 177.099 92.2481 177.014C93.2774 176.907 94.1742 176.689 94.938 176.359C95.0706 176.412 95.1633 176.481 95.2165 176.566V177.829C95.7312 177.376 96.2244 177.014 96.6967 176.742C97.169 176.465 97.6463 176.327 98.1291 176.327C98.7339 176.327 99.1609 176.497 99.4105 176.838C99.6651 177.179 99.7976 177.712 99.8081 178.436L99.8878 182.495C99.8933 182.634 99.9327 182.753 100.007 182.855C100.087 182.95 100.198 183.025 100.341 183.078C100.49 183.131 100.612 183.171 100.707 183.198C100.803 183.219 100.928 183.241 101.082 183.262C101.103 183.369 101.113 183.441 101.113 183.478C101.113 183.521 101.103 183.574 101.082 183.638C100.397 183.606 99.7658 183.59 99.1874 183.59C98.6253 183.59 98.0016 183.606 97.3175 183.638C97.2961 183.553 97.2856 183.489 97.2856 183.446C97.2856 183.409 97.2961 183.347 97.3175 183.262C97.4555 183.241 97.5696 183.219 97.6597 183.198C97.755 183.171 97.8611 183.131 97.9777 183.078C98.0998 183.025 98.19 182.95 98.2486 182.855C98.312 182.753 98.3439 182.634 98.3439 182.495L98.3598 178.7C98.3598 177.735 98.0708 177.254 97.4924 177.254C96.9513 177.254 96.1926 177.616 95.2165 178.34C95.2165 179.89 95.2379 181.275 95.2803 182.495C95.2853 182.634 95.3252 182.753 95.3994 182.855C95.4791 182.95 95.5906 183.025 95.7337 183.078C95.8771 183.131 95.9963 183.171 96.0919 183.198C96.1875 183.219 96.3121 183.241 96.466 183.262ZM106.027 183.821C105.767 183.821 105.53 183.8 105.318 183.757C105.111 183.715 104.95 183.67 104.833 183.622C104.721 183.574 104.57 183.502 104.379 183.406C104.172 183.406 103.867 183.483 103.464 183.638C103.395 183.595 103.347 183.547 103.321 183.494C103.347 183.409 103.379 183.118 103.416 182.623C103.459 182.127 103.48 181.685 103.48 181.297C103.549 181.265 103.674 181.249 103.854 181.249C103.95 181.558 104.048 181.821 104.148 182.039C104.255 182.258 104.387 182.471 104.546 182.679C104.711 182.881 104.907 183.036 105.135 183.142C105.369 183.243 105.634 183.294 105.931 183.294C106.392 183.294 106.753 183.174 107.013 182.934C107.279 182.695 107.411 182.423 107.411 182.119C107.411 181.89 107.374 181.696 107.3 181.536C107.225 181.377 107.058 181.209 106.798 181.033C106.544 180.852 106.178 180.673 105.7 180.498C105.403 180.391 105.151 180.293 104.944 180.202C104.737 180.111 104.523 179.999 104.3 179.866C104.082 179.733 103.907 179.597 103.774 179.459C103.642 179.315 103.533 179.145 103.448 178.947C103.363 178.75 103.321 178.535 103.321 178.3C103.321 178.13 103.339 177.962 103.377 177.797C103.419 177.626 103.496 177.451 103.607 177.27C103.724 177.089 103.867 176.931 104.037 176.798C104.212 176.659 104.443 176.548 104.729 176.462C105.021 176.372 105.35 176.327 105.716 176.327C105.865 176.327 105.995 176.335 106.106 176.351C106.223 176.367 106.361 176.396 106.52 176.439C106.684 176.476 106.775 176.497 106.79 176.502C106.907 176.476 107.027 176.441 107.149 176.399C107.276 176.356 107.347 176.332 107.363 176.327H107.57C107.698 177.094 107.862 177.746 108.064 178.284C108 178.354 107.897 178.388 107.753 178.388C107.313 177.855 106.936 177.467 106.624 177.222C106.316 176.971 105.965 176.846 105.573 176.846C105.265 176.846 104.994 176.915 104.761 177.054C104.528 177.192 104.411 177.403 104.411 177.685C104.411 178.042 104.552 178.322 104.833 178.524C105.119 178.726 105.647 178.985 106.416 179.299C106.772 179.443 107.051 179.563 107.252 179.659C107.459 179.754 107.666 179.869 107.873 180.002C108.08 180.135 108.231 180.274 108.326 180.418C108.427 180.556 108.509 180.724 108.573 180.921C108.637 181.118 108.669 181.347 108.669 181.608C108.669 182.173 108.409 182.684 107.889 183.142C107.374 183.595 106.753 183.821 106.027 183.821ZM113.168 174.969C113.221 174.947 113.282 174.937 113.351 174.937C113.42 174.937 113.491 174.947 113.566 174.969V176.718H115.977C116.009 176.798 116.025 176.897 116.025 177.014C116.025 177.115 116.009 177.208 115.977 177.294H113.566V181.56C113.566 182.402 113.951 182.823 114.72 182.823C115.011 182.823 115.261 182.767 115.468 182.655C115.68 182.543 115.913 182.375 116.168 182.151C116.301 182.167 116.388 182.231 116.431 182.343C116.197 182.764 115.852 183.115 115.396 183.398C114.94 183.68 114.438 183.821 113.892 183.821C112.608 183.821 111.966 183.041 111.966 181.48V177.294H110.987C110.966 177.198 110.955 177.136 110.955 177.11C110.955 177.105 110.966 177.043 110.987 176.926C111.242 176.798 111.436 176.694 111.568 176.614C111.706 176.529 111.879 176.409 112.086 176.255C112.298 176.1 112.489 175.919 112.659 175.711C112.834 175.498 113.004 175.251 113.168 174.969ZM118.105 177.014C119.134 176.907 120.031 176.689 120.795 176.359C120.928 176.412 121.02 176.481 121.073 176.566V177.941C121.27 177.568 121.561 177.206 121.949 176.854C122.341 176.502 122.75 176.327 123.174 176.327C123.492 176.327 123.75 176.423 123.946 176.614C124.148 176.801 124.249 177.059 124.249 177.389C124.249 177.704 124.156 177.949 123.97 178.125C123.784 178.3 123.551 178.388 123.27 178.388C123.01 178.388 122.795 178.306 122.625 178.141C122.461 177.97 122.37 177.746 122.355 177.469C122.132 177.565 121.877 177.778 121.591 178.109C121.309 178.439 121.137 178.766 121.073 179.091C121.073 180.279 121.095 181.414 121.137 182.495C121.142 182.634 121.193 182.753 121.288 182.855C121.384 182.95 121.524 183.025 121.71 183.078C121.896 183.131 122.05 183.171 122.172 183.198C122.294 183.219 122.453 183.241 122.649 183.262C122.681 183.326 122.697 183.393 122.697 183.462C122.697 183.515 122.681 183.574 122.649 183.638C121.853 183.606 121.066 183.59 120.285 183.59C119.638 183.59 118.965 183.606 118.264 183.638C118.243 183.553 118.232 183.494 118.232 183.462C118.232 183.435 118.243 183.369 118.264 183.262C118.439 183.241 118.582 183.219 118.694 183.198C118.805 183.171 118.943 183.131 119.108 183.078C119.272 183.025 119.397 182.95 119.482 182.855C119.566 182.753 119.612 182.634 119.617 182.495C119.638 181.968 119.649 181.329 119.649 180.577C119.649 180.327 119.646 179.901 119.641 179.299C119.636 178.697 119.633 178.17 119.633 177.717C119.33 177.53 118.821 177.421 118.105 177.389C118.084 177.304 118.073 177.238 118.073 177.19C118.073 177.158 118.084 177.099 118.105 177.014ZM125.947 176.502C126.138 176.513 126.329 176.524 126.52 176.534C126.711 176.545 126.862 176.553 126.973 176.558C127.085 176.564 127.188 176.566 127.284 176.566C127.363 176.566 127.456 176.564 127.562 176.558C127.668 176.553 127.811 176.545 127.992 176.534C128.178 176.524 128.355 176.513 128.525 176.502C128.62 176.534 128.698 176.617 128.756 176.75C128.75 176.793 128.74 176.857 128.724 176.942C128.714 177.022 128.703 177.121 128.692 177.238C128.687 177.349 128.684 177.488 128.684 177.653L128.668 181.448C128.668 182.407 128.958 182.886 129.536 182.886C130.072 182.886 130.833 182.532 131.82 181.824C131.82 180.237 131.796 178.846 131.748 177.653C131.748 177.557 131.729 177.472 131.692 177.397C131.655 177.323 131.597 177.259 131.517 177.206C131.443 177.152 131.374 177.11 131.31 177.078C131.252 177.041 131.164 177.009 131.048 176.982C130.931 176.95 130.849 176.931 130.801 176.926C130.753 176.915 130.674 176.899 130.562 176.878C130.541 176.793 130.531 176.729 130.531 176.686C130.531 176.649 130.541 176.588 130.562 176.502C130.748 176.513 130.936 176.524 131.127 176.534C131.324 176.545 131.478 176.553 131.589 176.558C131.7 176.564 131.804 176.566 131.899 176.566C131.979 176.566 132.072 176.564 132.178 176.558C132.284 176.553 132.427 176.545 132.608 176.534C132.793 176.524 132.971 176.513 133.141 176.502C133.167 176.518 133.189 176.534 133.204 176.55C133.225 176.561 133.241 176.577 133.252 176.598C133.268 176.614 133.279 176.628 133.284 176.638C133.289 176.644 133.297 176.662 133.308 176.694C133.319 176.721 133.327 176.739 133.332 176.75C133.289 177.038 133.268 177.339 133.268 177.653C133.236 178.436 133.22 179.073 133.22 179.563C133.22 179.818 133.225 180.247 133.236 180.849C133.247 181.451 133.252 181.978 133.252 182.431C133.554 182.607 134.064 182.716 134.78 182.759C134.806 182.892 134.82 182.961 134.82 182.966C134.82 182.998 134.806 183.054 134.78 183.134C133.777 183.23 132.881 183.449 132.09 183.789C131.952 183.731 131.862 183.659 131.82 183.574V182.327C131.289 182.785 130.788 183.15 130.316 183.422C129.849 183.688 129.377 183.821 128.899 183.821C128.294 183.821 127.865 183.651 127.61 183.31C127.36 182.969 127.23 182.434 127.22 181.704L127.156 177.653C127.146 177.53 127.122 177.44 127.085 177.381C127.053 177.318 126.997 177.259 126.918 177.206C126.843 177.152 126.774 177.11 126.711 177.078C126.647 177.041 126.557 177.009 126.44 176.982C126.324 176.95 126.241 176.931 126.194 176.926C126.146 176.915 126.064 176.899 125.947 176.878C125.926 176.793 125.915 176.729 125.915 176.686C125.915 176.649 125.926 176.588 125.947 176.502ZM143.234 181.512C143.362 181.539 143.465 181.598 143.545 181.688C143.279 182.402 142.868 182.937 142.311 183.294C141.754 183.646 141.149 183.821 140.497 183.821C140.173 183.821 139.858 183.779 139.55 183.694C139.242 183.614 138.942 183.481 138.651 183.294C138.364 183.107 138.112 182.879 137.895 182.607C137.682 182.33 137.51 181.986 137.377 181.576C137.25 181.161 137.187 180.703 137.187 180.202C137.187 179.046 137.539 178.111 138.245 177.397C138.95 176.683 139.831 176.327 140.887 176.327C141.63 176.327 142.235 176.489 142.701 176.814C143.174 177.134 143.409 177.544 143.409 178.045C143.409 178.327 143.317 178.561 143.131 178.748C142.945 178.934 142.717 179.027 142.447 179.027C142.16 179.027 141.929 178.945 141.754 178.78C141.579 178.609 141.492 178.412 141.492 178.189C141.492 177.783 141.696 177.528 142.105 177.421C142.067 177.299 141.948 177.174 141.746 177.046C141.545 176.913 141.258 176.846 140.887 176.846C140.696 176.846 140.516 176.87 140.346 176.918C140.176 176.961 139.993 177.054 139.797 177.198C139.606 177.341 139.441 177.53 139.303 177.765C139.171 177.999 139.059 178.327 138.969 178.748C138.879 179.163 138.834 179.648 138.834 180.202C138.834 180.575 138.871 180.913 138.945 181.217C139.025 181.52 139.147 181.795 139.311 182.039C139.476 182.285 139.701 182.477 139.988 182.615C140.274 182.753 140.611 182.823 140.998 182.823C141.242 182.823 141.473 182.791 141.691 182.727C141.908 182.658 142.083 182.586 142.216 182.511C142.354 182.437 142.5 182.325 142.654 182.175C142.813 182.021 142.919 181.912 142.972 181.848C143.025 181.779 143.112 181.667 143.234 181.512ZM147.718 174.969C147.771 174.947 147.832 174.937 147.901 174.937C147.97 174.937 148.042 174.947 148.116 174.969V176.718H150.527C150.559 176.798 150.575 176.897 150.575 177.014C150.575 177.115 150.559 177.208 150.527 177.294H148.116V181.56C148.116 182.402 148.5 182.823 149.27 182.823C149.562 182.823 149.811 182.767 150.018 182.655C150.23 182.543 150.463 182.375 150.718 182.151C150.851 182.167 150.938 182.231 150.981 182.343C150.747 182.764 150.402 183.115 149.946 183.398C149.49 183.68 148.989 183.821 148.442 183.821C147.158 183.821 146.516 183.041 146.516 181.48V177.294H145.538C145.516 177.198 145.506 177.136 145.506 177.11C145.506 177.105 145.516 177.043 145.538 176.926C145.792 176.798 145.986 176.694 146.118 176.614C146.256 176.529 146.429 176.409 146.636 176.255C146.848 176.1 147.039 175.919 147.209 175.711C147.384 175.498 147.553 175.251 147.718 174.969ZM152.655 177.014C153.684 176.907 154.581 176.689 155.345 176.359C155.477 176.412 155.57 176.481 155.623 176.566C155.623 179.331 155.645 181.307 155.687 182.495C155.692 182.634 155.732 182.753 155.806 182.855C155.886 182.95 155.997 183.025 156.141 183.078C156.284 183.131 156.403 183.171 156.499 183.198C156.594 183.219 156.719 183.241 156.873 183.262C156.905 183.326 156.921 183.393 156.921 183.462C156.921 183.531 156.905 183.59 156.873 183.638C156.172 183.606 155.493 183.59 154.836 183.59C154.188 183.59 153.514 183.606 152.814 183.638C152.793 183.553 152.782 183.494 152.782 183.462C152.782 183.435 152.793 183.369 152.814 183.262C152.989 183.241 153.133 183.219 153.244 183.198C153.355 183.171 153.493 183.131 153.658 183.078C153.822 183.025 153.947 182.95 154.032 182.855C154.117 182.753 154.162 182.634 154.167 182.495C154.188 181.968 154.199 181.329 154.199 180.577C154.199 180.327 154.196 179.901 154.191 179.299C154.186 178.697 154.183 178.17 154.183 177.717C153.881 177.53 153.371 177.421 152.655 177.389C152.634 177.304 152.623 177.238 152.623 177.19C152.623 177.158 152.634 177.099 152.655 177.014ZM153.904 173.674C153.904 173.402 154 173.171 154.191 172.979C154.387 172.787 154.618 172.691 154.883 172.691C155.154 172.691 155.385 172.787 155.576 172.979C155.767 173.171 155.862 173.402 155.862 173.674C155.862 173.94 155.767 174.172 155.576 174.369C155.385 174.561 155.154 174.657 154.883 174.657C154.618 174.657 154.387 174.561 154.191 174.369C154 174.172 153.904 173.94 153.904 173.674ZM162.63 176.327C163.155 176.327 163.627 176.42 164.046 176.606C164.471 176.793 164.831 177.051 165.128 177.381C165.425 177.712 165.653 178.109 165.813 178.572C165.972 179.03 166.051 179.531 166.051 180.074C166.051 181.182 165.741 182.082 165.12 182.775C164.505 183.473 163.674 183.821 162.63 183.821C162.11 183.821 161.637 183.731 161.213 183.55C160.794 183.363 160.436 183.105 160.139 182.775C159.842 182.439 159.611 182.042 159.446 181.584C159.287 181.126 159.207 180.623 159.207 180.074C159.207 179.531 159.287 179.03 159.446 178.572C159.605 178.109 159.831 177.712 160.123 177.381C160.42 177.051 160.781 176.793 161.205 176.606C161.629 176.42 162.104 176.327 162.63 176.327ZM162.63 176.846C162.088 176.846 161.656 177.11 161.332 177.637C161.014 178.165 160.855 178.977 160.855 180.074C160.855 181.171 161.014 181.984 161.332 182.511C161.656 183.033 162.088 183.294 162.63 183.294C163.171 183.294 163.6 183.03 163.919 182.503C164.242 181.976 164.404 181.166 164.404 180.074C164.404 179.525 164.361 179.049 164.277 178.644C164.192 178.239 164.072 177.903 163.919 177.637C163.765 177.371 163.579 177.174 163.362 177.046C163.144 176.913 162.9 176.846 162.63 176.846ZM172.668 183.262C172.699 183.326 172.715 183.393 172.715 183.462C172.715 183.515 172.699 183.574 172.668 183.638C171.967 183.606 171.288 183.59 170.63 183.59C169.983 183.59 169.31 183.606 168.609 183.638C168.588 183.553 168.577 183.494 168.577 183.462C168.577 183.435 168.588 183.369 168.609 183.262C168.784 183.241 168.927 183.219 169.039 183.198C169.15 183.171 169.288 183.131 169.453 183.078C169.617 183.025 169.742 182.95 169.827 182.855C169.911 182.753 169.957 182.634 169.962 182.495C169.983 181.968 169.994 181.329 169.994 180.577C169.994 180.327 169.991 179.901 169.986 179.299C169.981 178.697 169.978 178.17 169.978 177.717C169.675 177.53 169.166 177.421 168.45 177.389C168.429 177.304 168.418 177.238 168.418 177.19C168.418 177.158 168.429 177.099 168.45 177.014C169.479 176.907 170.376 176.689 171.14 176.359C171.272 176.412 171.365 176.481 171.418 176.566V177.829C171.933 177.376 172.426 177.014 172.898 176.742C173.371 176.465 173.848 176.327 174.331 176.327C174.936 176.327 175.363 176.497 175.612 176.838C175.867 177.179 175.999 177.712 176.01 178.436L176.089 182.495C176.095 182.634 176.135 182.753 176.209 182.855C176.289 182.95 176.4 183.025 176.543 183.078C176.692 183.131 176.814 183.171 176.909 183.198C177.005 183.219 177.129 183.241 177.283 183.262C177.304 183.369 177.315 183.441 177.315 183.478C177.315 183.521 177.304 183.574 177.283 183.638C176.599 183.606 175.967 183.59 175.389 183.59C174.827 183.59 174.204 183.606 173.519 183.638C173.498 183.553 173.487 183.489 173.487 183.446C173.487 183.409 173.498 183.347 173.519 183.262C173.657 183.241 173.771 183.219 173.861 183.198C173.957 183.171 174.063 183.131 174.18 183.078C174.302 183.025 174.392 182.95 174.45 182.855C174.514 182.753 174.546 182.634 174.546 182.495L174.562 178.7C174.562 177.735 174.272 177.254 173.694 177.254C173.153 177.254 172.394 177.616 171.418 178.34C171.418 179.89 171.439 181.275 171.482 182.495C171.487 182.634 171.527 182.753 171.601 182.855C171.681 182.95 171.792 183.025 171.936 183.078C172.079 183.131 172.198 183.171 172.293 183.198C172.389 183.219 172.514 183.241 172.668 183.262ZM182.228 183.821C181.968 183.821 181.732 183.8 181.52 183.757C181.313 183.715 181.151 183.67 181.034 183.622C180.923 183.574 180.772 183.502 180.581 183.406C180.374 183.406 180.069 183.483 179.666 183.638C179.597 183.595 179.549 183.547 179.522 183.494C179.549 183.409 179.581 183.118 179.618 182.623C179.66 182.127 179.682 181.685 179.682 181.297C179.751 181.265 179.875 181.249 180.056 181.249C180.151 181.558 180.249 181.821 180.35 182.039C180.456 182.258 180.589 182.471 180.748 182.679C180.912 182.881 181.109 183.036 181.337 183.142C181.571 183.243 181.836 183.294 182.133 183.294C182.594 183.294 182.955 183.174 183.215 182.934C183.48 182.695 183.613 182.423 183.613 182.119C183.613 181.89 183.576 181.696 183.502 181.536C183.427 181.377 183.26 181.209 183 181.033C182.745 180.852 182.379 180.673 181.902 180.498C181.605 180.391 181.353 180.293 181.146 180.202C180.939 180.111 180.724 179.999 180.501 179.866C180.284 179.733 180.109 179.597 179.976 179.459C179.844 179.315 179.735 179.145 179.65 178.947C179.565 178.75 179.522 178.535 179.522 178.3C179.522 178.13 179.541 177.962 179.578 177.797C179.621 177.626 179.698 177.451 179.809 177.27C179.926 177.089 180.069 176.931 180.239 176.798C180.414 176.659 180.644 176.548 180.931 176.462C181.223 176.372 181.552 176.327 181.918 176.327C182.066 176.327 182.196 176.335 182.308 176.351C182.425 176.367 182.563 176.396 182.721 176.439C182.886 176.476 182.976 176.497 182.992 176.502C183.109 176.476 183.228 176.441 183.35 176.399C183.478 176.356 183.549 176.332 183.565 176.327H183.772C183.899 177.094 184.064 177.746 184.265 178.284C184.202 178.354 184.098 178.388 183.955 178.388C183.515 177.855 183.138 177.467 182.825 177.222C182.517 176.971 182.167 176.846 181.775 176.846C181.467 176.846 181.196 176.915 180.963 177.054C180.73 177.192 180.613 177.403 180.613 177.685C180.613 178.042 180.753 178.322 181.034 178.524C181.321 178.726 181.849 178.985 182.618 179.299C182.974 179.443 183.252 179.563 183.454 179.659C183.661 179.754 183.867 179.869 184.075 180.002C184.281 180.135 184.432 180.274 184.528 180.418C184.629 180.556 184.711 180.724 184.775 180.921C184.838 181.118 184.87 181.347 184.87 181.608C184.87 182.173 184.61 182.684 184.091 183.142C183.576 183.595 182.955 183.821 182.228 183.821Z" fill="white"/>
</g>
<defs>
<clipPath id="clip0_2130_2739">
<rect width="180" height="200" fill="white" transform="translate(38 25)"/>
</clipPath>
</defs>
</svg>
